CascadiaCode.ufo
<glyph name="dollar" format="1">
  <advance width="1200"/>
  <unicode hex="0024"/>
  <outline>
    <contour>
      <point x="682" y="-334" type="line"/>
      <point x="682" y="1720" type="line"/>
      <point x="544" y="1720" type="line"/>
      <point x="544" y="-334" type="line"/>
    </contour>
    <component base="S"/>
  </outline>
</glyph>
<glyph name="parenright" format="1">
  <advance width="1200"/>
  <unicode hex="0029"/>
  <outline>
    <contour>
      <point x="250" y="-200" type="line" smooth="yes"/>
      <point x="684" y="-200"/>
      <point x="934" y="133"/>
      <point x="934" y="716" type="curve" smooth="yes"/>
      <point x="934" y="1291"/>
      <point x="684" y="1620"/>
      <point x="250" y="1620" type="curve" smooth="yes"/>
      <point x="202" y="1620" type="line"/>
      <point x="222" y="1440" type="line"/>
      <point x="230" y="1440" type="line" smooth="yes"/>
      <point x="546" y="1440"/>
      <point x="724" y="1175"/>
      <point x="724" y="716" type="curve" smooth="yes"/>
      <point x="724" y="249"/>
      <point x="546" y="-20"/>
      <point x="230" y="-20" type="curve" smooth="yes"/>
      <point x="222" y="-20" type="line"/>
      <point x="202" y="-200" type="line"/>
    </contour>
  </outline>
</glyph>
<glyph name="hyphen" format="1">
  <advance width="1200"/>
  <unicode hex="002D"/>
  <outline>
    <contour>
      <point x="1100" y="616" type="line"/>
      <point x="1100" y="802" type="line"/>
      <point x="100" y="802" type="line"/>
      <point x="100" y="616" type="line"/>
    </contour>
  </outline>
</glyph>
<glyph name="slash" format="1">
  <advance width="1200"/>
  <unicode hex="002F"/>
  <outline>
    <contour>
      <point x="316" y="-190" type="line"/>
      <point x="1120" y="1610" type="line"/>
      <point x="908" y="1610" type="line"/>
      <point x="104" y="-190" type="line"/>
    </contour>
  </outline>
</glyph>
<glyph name="E" format="1">
  <advance width="1200"/>
  <unicode hex="0045"/>
    <anchor name="bottom" x="630" y="0"/>
    <anchor name="ogonek" x="1080" y="10"/>
    <anchor name="top" x="630" y="1420"/>
    <anchor name="topleft" x="20" y="1420"/>
  <outline>
    <contour>
      <point x="360" y="0" type="line"/>
      <point x="360" y="1420" type="line"/>
      <point x="160" y="1420" type="line"/>
      <point x="160" y="0" type="line"/>
    </contour>
    <contour>
      <point x="1100" y="0" type="line"/>
      <point x="1100" y="190" type="line"/>
      <point x="160" y="190" type="line"/>
      <point x="160" y="0" type="line"/>
    </contour>
    <contour>
      <point x="920" y="616" type="line"/>
      <point x="920" y="806" type="line"/>
      <point x="160" y="806" type="line"/>
      <point x="160" y="616" type="line"/>
    </contour>
    <contour>
      <point x="1100" y="1230" type="line"/>
      <point x="1100" y="1420" type="line"/>
      <point x="160" y="1420" type="line"/>
      <point x="160" y="1230" type="line"/>
    </contour>
    <contour>
      <point x="630" y="0" type="move" name="bottom"/>
    </contour>
    <contour>
      <point x="1080" y="10" type="move" name="ogonek"/>
    </contour>
    <contour>
      <point x="630" y="1420" type="move" name="top"/>
    </contour>
    <contour>
      <point x="20" y="1420" type="move" name="topleft"/>
    </contour>
  </outline>
</glyph>
<glyph name="H" format="1">
  <advance width="1200"/>
  <unicode hex="0048"/>
    <anchor name="bottom" x="600" y="0"/>
    <anchor name="center" x="600" y="710"/>
    <anchor name="top" x="600" y="1420"/>
    <anchor name="topleft" x="20" y="1420"/>
  <outline>
    <contour>
      <point x="1058" y="0" type="line"/>
      <point x="1058" y="1420" type="line"/>
      <point x="858" y="1420" type="line"/>
      <point x="858" y="0" type="line"/>
    </contour>
    <contour>
      <point x="340" y="0" type="line"/>
      <point x="340" y="1420" type="line"/>
      <point x="140" y="1420" type="line"/>
      <point x="140" y="0" type="line"/>
    </contour>
    <contour>
      <point x="1021" y="612" type="line"/>
      <point x="1021" y="802" type="line"/>
      <point x="182" y="802" type="line"/>
      <point x="182" y="612" type="line"/>
    </contour>
    <contour>
      <point x="600" y="0" type="move" name="bottom"/>
    </contour>
    <contour>
      <point x="600" y="710" type="move" name="center"/>
    </contour>
    <contour>
      <point x="600" y="1420" type="move" name="top"/>
    </contour>
    <contour>
      <point x="20" y="1420" type="move" name="topleft"/>
    </contour>
  </outline>
</glyph>
<glyph name="I" format="1">
  <advance width="1200"/>
  <unicode hex="0049"/>
    <anchor name="bottom" x="600" y="0"/>
    <anchor name="ogonek" x="1080" y="10"/>
    <anchor name="top" x="600" y="1420"/>
    <anchor name="topleft" x="20" y="1420"/>
  <outline>
    <contour>
      <point x="699" y="0" type="line"/>
      <point x="699" y="1420" type="line"/>
      <point x="499" y="1420" type="line"/>
      <point x="499" y="0" type="line"/>
    </contour>
    <contour>
      <point x="1032" y="0" type="line"/>
      <point x="1032" y="190" type="line"/>
      <point x="168" y="190" type="line"/>
      <point x="168" y="0" type="line"/>
    </contour>
    <contour>
      <point x="1032" y="1230" type="line"/>
      <point x="1032" y="1420" type="line"/>
      <point x="168" y="1420" type="line"/>
      <point x="168" y="1230" type="line"/>
    </contour>
    <contour>
      <point x="600" y="0" type="move" name="bottom"/>
    </contour>
    <contour>
      <point x="1080" y="10" type="move" name="ogonek"/>
    </contour>
    <contour>
      <point x="600" y="1420" type="move" name="top"/>
    </contour>
    <contour>
      <point x="20" y="1420" type="move" name="topleft"/>
    </contour>
  </outline>
</glyph>
<glyph name="J" format="1">
  <advance width="1200"/>
  <unicode hex="004A"/>
    <anchor name="bottom" x="600" y="0"/>
    <anchor name="top" x="780" y="1420"/>
  <outline>
    <contour>
      <point x="584" y="-20" type="curve" smooth="yes"/>
      <point x="890" y="-20"/>
      <point x="1072" y="146"/>
      <point x="1072" y="436" type="curve" smooth="yes"/>
      <point x="1072" y="1420" type="line"/>
      <point x="872" y="1420" type="line"/>
      <point x="872" y="436" type="line" smooth="yes"/>
      <point x="872" y="260"/>
      <point x="770" y="160"/>
      <point x="589" y="160" type="curve" smooth="yes"/>
      <point x="402" y="160"/>
      <point x="296" y="276"/>
      <point x="296" y="476" type="curve"/>
      <point x="96" y="476" type="line"/>
      <point x="96" y="162"/>
      <point x="272" y="-20"/>
    </contour>
    <contour>
      <point x="966" y="1230" type="line"/>
      <point x="966" y="1420" type="line"/>
      <point x="500" y="1420" type="line"/>
      <point x="500" y="1230" type="line"/>
    </contour>
    <contour>
      <point x="600" y="0" type="move" name="bottom"/>
    </contour>
    <contour>
      <point x="780" y="1420" type="move" name="top"/>
    </contour>
  </outline>
</glyph>
<glyph name="K" format="1">
  <advance width="1200"/>
  <unicode hex="004B"/>
    <anchor name="bottom" x="640" y="0"/>
    <anchor name="top" x="600" y="1420"/>
  <outline>
    <contour>
      <point x="286" y="452" type="line"/>
      <point x="804" y="452"/>
      <point x="1104" y="915"/>
      <point x="1104" y="1420" type="curve"/>
      <point x="898" y="1420" type="line"/>
      <point x="898" y="1024"/>
      <point x="714" y="640"/>
      <point x="304" y="640" type="curve"/>
    </contour>
    <contour>
      <point x="360" y="0" type="line"/>
      <point x="360" y="1420" type="line"/>
      <point x="160" y="1420" type="line"/>
      <point x="160" y="0" type="line"/>
    </contour>
    <contour>
      <point x="1172" y="0" type="line"/>
      <point x="750" y="794" type="line"/>
      <point x="570" y="692" type="line"/>
      <point x="930" y="0" type="line"/>
    </contour>
    <contour>
      <point x="640" y="0" type="move" name="bottom"/>
    </contour>
    <contour>
      <point x="600" y="1420" type="move" name="top"/>
    </contour>
  </outline>
</glyph>
<glyph name="L" format="1">
  <advance width="1200"/>
  <unicode hex="004C"/>
    <anchor name="bottom" x="620" y="0"/>
    <anchor name="center" x="600" y="710"/>
    <anchor name="top" x="260" y="1420"/>
    <anchor name="topright" x="1180" y="1420"/>
  <outline>
    <contour>
      <point x="360" y="0" type="line"/>
      <point x="360" y="1420" type="line"/>
      <point x="160" y="1420" type="line"/>
      <point x="160" y="0" type="line"/>
    </contour>
    <contour>
      <point x="1100" y="0" type="line"/>
      <point x="1100" y="190" type="line"/>
      <point x="160" y="190" type="line"/>
      <point x="160" y="0" type="line"/>
    </contour>
    <contour>
      <point x="620" y="0" type="move" name="bottom"/>
    </contour>
    <contour>
      <point x="600" y="710" type="move" name="center"/>
    </contour>
    <contour>
      <point x="260" y="1420" type="move" name="top"/>
    </contour>
    <contour>
      <point x="1180" y="1420" type="move" name="topright"/>
    </contour>
  </outline>
</glyph>
<glyph name="M" format="1">
  <advance width="1200"/>
  <unicode hex="004D"/>
    <anchor name="bottom" x="600" y="0"/>
    <anchor name="top" x="600" y="1420"/>
  <outline>
    <contour>
      <point x="702" y="580" type="line"/>
      <point x="854" y="1168" type="line"/>
      <point x="912" y="1168" type="line"/>
      <point x="912" y="1420" type="line"/>
      <point x="760" y="1420" type="line"/>
      <point x="608" y="810" type="line"/>
      <point x="596" y="810" type="line"/>
      <point x="566" y="580" type="line"/>
    </contour>
    <contour>
      <point x="320" y="0" type="line"/>
      <point x="320" y="1420" type="line"/>
      <point x="128" y="1420" type="line"/>
      <point x="128" y="0" type="line"/>
    </contour>
    <contour>
      <point x="620" y="580" type="line"/>
      <point x="600" y="810" type="line"/>
      <point x="592" y="810" type="line"/>
      <point x="440" y="1420" type="line"/>
      <point x="288" y="1420" type="line"/>
      <point x="288" y="1168" type="line"/>
      <point x="346" y="1168" type="line"/>
      <point x="498" y="580" type="line"/>
    </contour>
    <contour>
      <point x="1072" y="0" type="line"/>
      <point x="1072" y="1420" type="line"/>
      <point x="880" y="1420" type="line"/>
      <point x="880" y="0" type="line"/>
    </contour>
    <contour>
      <point x="600" y="0" type="move" name="bottom"/>
    </contour>
    <contour>
      <point x="600" y="1420" type="move" name="top"/>
    </contour>
  </outline>
</glyph>
<glyph name="N" format="1">
  <advance width="1200"/>
  <unicode hex="004E"/>
    <anchor name="bottom" x="600" y="0"/>
    <anchor name="top" x="600" y="1420"/>
  <outline>
    <contour>
      <point x="890" y="0" type="line"/>
      <point x="890" y="322" type="line"/>
      <point x="840" y="322" type="line"/>
      <point x="400" y="1420" type="line"/>
      <point x="268" y="1420" type="line"/>
      <point x="268" y="1050" type="line"/>
      <point x="360" y="1050" type="line"/>
      <point x="800" y="0" type="line"/>
    </contour>
    <contour>
      <point x="340" y="0" type="line"/>
      <point x="340" y="1420" type="line"/>
      <point x="148" y="1420" type="line"/>
      <point x="148" y="0" type="line"/>
    </contour>
    <contour>
      <point x="1052" y="0" type="line"/>
      <point x="1052" y="1420" type="line"/>
      <point x="860" y="1420" type="line"/>
      <point x="860" y="0" type="line"/>
    </contour>
    <contour>
      <point x="600" y="0" type="move" name="bottom"/>
    </contour>
    <contour>
      <point x="600" y="1420" type="move" name="top"/>
    </contour>
  </outline>
</glyph>
<glyph name="O" format="1">
  <advance width="1200"/>
  <unicode hex="004F"/>
    <anchor name="bottom" x="600" y="0"/>
    <anchor name="center" x="600" y="710"/>
    <anchor name="ogonek" x="1080" y="10"/>
    <anchor name="top" x="600" y="1420"/>
    <anchor name="topleft" x="20" y="1420"/>
    <anchor name="topright" x="1180" y="1420"/>
  <outline>
    <contour>
      <point x="600" y="-20" type="curve" smooth="yes"/>
      <point x="948" y="-20"/>
      <point x="1124" y="218"/>
      <point x="1124" y="700" type="curve" smooth="yes"/>
      <point x="1124" y="1194"/>
      <point x="948" y="1440"/>
      <point x="600" y="1440" type="curve" smooth="yes"/>
      <point x="252" y="1440"/>
      <point x="76" y="1194"/>
      <point x="76" y="700" type="curve" smooth="yes"/>
      <point x="76" y="218"/>
      <point x="252" y="-20"/>
    </contour>
    <contour>
      <point x="600" y="164" type="curve" smooth="yes"/>
      <point x="391" y="164"/>
      <point x="286" y="342"/>
      <point x="286" y="700" type="curve" smooth="yes"/>
      <point x="286" y="1072"/>
      <point x="391" y="1256"/>
      <point x="600" y="1256" type="curve" smooth="yes"/>
      <point x="809" y="1256"/>
      <point x="914" y="1072"/>
      <point x="914" y="700" type="curve" smooth="yes"/>
      <point x="914" y="342"/>
      <point x="809" y="164"/>
    </contour>
    <contour>
      <point x="600" y="0" type="move" name="bottom"/>
    </contour>
    <contour>
      <point x="600" y="710" type="move" name="center"/>
    </contour>
    <contour>
      <point x="1080" y="10" type="move" name="ogonek"/>
    </contour>
    <contour>
      <point x="600" y="1420" type="move" name="top"/>
    </contour>
    <contour>
      <point x="20" y="1420" type="move" name="topleft"/>
    </contour>
    <contour>
      <point x="1180" y="1420" type="move" name="topright"/>
    </contour>
  </outline>
</glyph>
<glyph name="Q" format="1">
  <advance width="1200"/>
  <unicode hex="0051"/>
  <outline>
    <contour>
      <point x="1012" y="-460" type="line"/>
      <point x="1032" y="-280" type="line"/>
      <point x="930" y="-280" type="line" smooth="yes"/>
      <point x="772" y="-280"/>
      <point x="694" y="-194"/>
      <point x="694" y="-22" type="curve" smooth="yes"/>
      <point x="694" y="62" type="line"/>
      <point x="496" y="62" type="line"/>
      <point x="496" y="-20" type="line" smooth="yes"/>
      <point x="496" y="-314"/>
      <point x="642" y="-460"/>
      <point x="930" y="-460" type="curve" smooth="yes"/>
    </contour>
    <component base="O"/>
  </outline>
</glyph>
<glyph name="T" format="1">
  <advance width="1200"/>
  <unicode hex="0054"/>
    <anchor name="bottom" x="595" y="0"/>
    <anchor name="center" x="600" y="710"/>
    <anchor name="top" x="600" y="1420"/>
  <outline>
    <contour>
      <point x="700" y="0" type="line"/>
      <point x="700" y="1420" type="line"/>
      <point x="500" y="1420" type="line"/>
      <point x="500" y="0" type="line"/>
    </contour>
    <contour>
      <point x="1120" y="1230" type="line"/>
      <point x="1120" y="1420" type="line"/>
      <point x="80" y="1420" type="line"/>
      <point x="80" y="1230" type="line"/>
    </contour>
    <contour>
      <point x="595" y="0" type="move" name="bottom"/>
    </contour>
    <contour>
      <point x="600" y="710" type="move" name="center"/>
    </contour>
    <contour>
      <point x="600" y="1420" type="move" name="top"/>
    </contour>
  </outline>
</glyph>
<glyph name="U" format="1">
  <advance width="1200"/>
  <unicode hex="0055"/>
    <anchor name="bottom" x="600" y="0"/>
    <anchor name="ogonek" x="1080" y="10"/>
    <anchor name="top" x="600" y="1420"/>
    <anchor name="topright" x="1180" y="1420"/>
  <outline>
    <contour>
      <point x="596" y="-20" type="curve" smooth="yes"/>
      <point x="900" y="-20"/>
      <point x="1060" y="138"/>
      <point x="1060" y="456" type="curve" smooth="yes"/>
      <point x="1060" y="1420" type="line"/>
      <point x="860" y="1420" type="line"/>
      <point x="860" y="456" type="line" smooth="yes"/>
      <point x="860" y="266"/>
      <point x="772" y="170"/>
      <point x="600" y="170" type="curve" smooth="yes"/>
      <point x="420" y="170"/>
      <point x="340" y="266"/>
      <point x="340" y="456" type="curve" smooth="yes"/>
      <point x="340" y="1420" type="line"/>
      <point x="140" y="1420" type="line"/>
      <point x="140" y="456" type="line" smooth="yes"/>
      <point x="140" y="138"/>
      <point x="292" y="-20"/>
    </contour>
    <contour>
      <point x="600" y="0" type="move" name="bottom"/>
    </contour>
    <contour>
      <point x="1080" y="10" type="move" name="ogonek"/>
    </contour>
    <contour>
      <point x="600" y="1420" type="move" name="top"/>
    </contour>
    <contour>
      <point x="1180" y="1420" type="move" name="topright"/>
    </contour>
  </outline>
</glyph>
<glyph name="V" format="1">
  <advance width="1200"/>
  <unicode hex="0056"/>
    <anchor name="bottom" x="600" y="0"/>
    <anchor name="top" x="600" y="1420"/>
  <outline>
    <contour>
      <point x="754" y="0" type="line"/>
      <point x="1154" y="1420" type="line"/>
      <point x="940" y="1420" type="line"/>
      <point x="608" y="170" type="line"/>
      <point x="590" y="170" type="line"/>
      <point x="258" y="1420" type="line"/>
      <point x="44" y="1420" type="line"/>
      <point x="444" y="0" type="line"/>
    </contour>
    <contour>
      <point x="600" y="0" type="move" name="bottom"/>
    </contour>
    <contour>
      <point x="600" y="1420" type="move" name="top"/>
    </contour>
  </outline>
</glyph>
<glyph name="X" format="1">
  <advance width="1200"/>
  <unicode hex="0058"/>
    <anchor name="bottom" x="600" y="0"/>
    <anchor name="top" x="600" y="1420"/>
  <outline>
    <contour>
      <point x="542" y="636" type="line"/>
      <point x="66" y="1420" type="line"/>
      <point x="296" y="1420" type="line"/>
      <point x="674" y="746" type="line"/>
      <point x="1136" y="0" type="line"/>
      <point x="906" y="0" type="line"/>
    </contour>
    <contour>
      <point x="528" y="746" type="line"/>
      <point x="906" y="1420" type="line"/>
      <point x="1136" y="1420" type="line"/>
      <point x="660" y="636" type="line"/>
      <point x="296" y="0" type="line"/>
      <point x="66" y="0" type="line"/>
    </contour>
    <contour>
      <point x="600" y="0" type="move" name="bottom"/>
    </contour>
    <contour>
      <point x="600" y="1420" type="move" name="top"/>
    </contour>
  </outline>
</glyph>
<glyph name="bracketleft" format="1">
  <advance width="1200"/>
  <unicode hex="005B"/>
  <outline>
    <contour>
      <point x="572" y="-214" type="line"/>
      <point x="572" y="1634" type="line"/>
      <point x="372" y="1634" type="line"/>
      <point x="372" y="-214" type="line"/>
    </contour>
    <contour>
      <point x="998" y="-214" type="line"/>
      <point x="998" y="-24" type="line"/>
      <point x="552" y="-24" type="line"/>
      <point x="552" y="-214" type="line"/>
    </contour>
    <contour>
      <point x="998" y="1444" type="line"/>
      <point x="998" y="1634" type="line"/>
      <point x="552" y="1634" type="line"/>
      <point x="552" y="1444" type="line"/>
    </contour>
  </outline>
</glyph>
<glyph name="bracketright" format="1">
  <advance width="1200"/>
  <unicode hex="005D"/>
  <outline>
    <contour>
      <point x="828" y="-214" type="line"/>
      <point x="828" y="1634" type="line"/>
      <point x="616" y="1634" type="line"/>
      <point x="616" y="-214" type="line"/>
    </contour>
    <contour>
      <point x="636" y="-214" type="line"/>
      <point x="636" y="-24" type="line"/>
      <point x="202" y="-24" type="line"/>
      <point x="202" y="-214" type="line"/>
    </contour>
    <contour>
      <point x="636" y="1444" type="line"/>
      <point x="636" y="1634" type="line"/>
      <point x="202" y="1634" type="line"/>
      <point x="202" y="1444" type="line"/>
    </contour>
  </outline>
</glyph>
<glyph name="grave" format="1">
  <advance width="1200"/>
  <unicode hex="0060"/>
  <outline>
    <contour>
      <point x="671" y="1248" type="line"/>
      <point x="501" y="1628" type="line"/>
      <point x="289" y="1628" type="line"/>
      <point x="479" y="1248" type="line"/>
    </contour>
  </outline>
</glyph>
<glyph name="f" format="1">
  <advance width="1200"/>
  <unicode hex="0066"/>
    <anchor name="bottom" x="508" y="0"/>
    <anchor name="top" x="740" y="1568"/>
  <outline>
    <contour>
      <point x="614" y="0" type="line"/>
      <point x="614" y="980" type="line" smooth="yes"/>
      <point x="614" y="1214"/>
      <point x="708" y="1330"/>
      <point x="898" y="1330" type="curve" smooth="yes"/>
      <point x="958" y="1330"/>
      <point x="1018" y="1326"/>
      <point x="1102" y="1316" type="curve"/>
      <point x="1124" y="1500" type="line"/>
      <point x="1050" y="1514"/>
      <point x="984" y="1520"/>
      <point x="904" y="1520" type="curve" smooth="yes"/>
      <point x="568" y="1520"/>
      <point x="402" y="1338"/>
      <point x="402" y="970" type="curve" smooth="yes"/>
      <point x="402" y="0" type="line"/>
    </contour>
    <contour>
      <point x="1048" y="644" type="line"/>
      <point x="1048" y="820" type="line"/>
      <point x="68" y="820" type="line"/>
      <point x="68" y="644" type="line"/>
    </contour>
    <contour>
      <point x="508" y="0" type="move" name="bottom"/>
    </contour>
    <contour>
      <point x="740" y="1568" type="move" name="top"/>
    </contour>
  </outline>
</glyph>
<glyph name="h" format="1">
  <advance width="1200"/>
  <unicode hex="0068"/>
    <anchor name="bottom" x="600" y="0"/>
    <anchor name="center" x="600" y="784"/>
    <anchor name="top" x="274" y="1500"/>
  <outline>
    <contour>
      <point x="1032" y="0" type="line"/>
      <point x="1032" y="690" type="line" smooth="yes"/>
      <point x="1032" y="938"/>
      <point x="904" y="1080"/>
      <point x="680" y="1080" type="curve" smooth="yes"/>
      <point x="502" y="1080"/>
      <point x="412" y="1010"/>
      <point x="400" y="868" type="curve"/>
      <point x="318" y="868" type="line"/>
      <point x="380" y="596" type="line"/>
      <point x="380" y="800"/>
      <point x="464" y="900"/>
      <point x="630" y="900" type="curve" smooth="yes"/>
      <point x="750" y="900"/>
      <point x="820" y="824"/>
      <point x="820" y="690" type="curve" smooth="yes"/>
      <point x="820" y="0" type="line"/>
    </contour>
    <contour>
      <point x="380" y="0" type="line"/>
      <point x="380" y="1500" type="line"/>
      <point x="168" y="1500" type="line"/>
      <point x="168" y="0" type="line"/>
    </contour>
    <contour>
      <point x="600" y="0" type="move" name="bottom"/>
    </contour>
    <contour>
      <point x="600" y="784" type="move" name="center"/>
    </contour>
    <contour>
      <point x="274" y="1500" type="move" name="top"/>
    </contour>
  </outline>
</glyph>
<glyph name="o" format="1">
  <advance width="1200"/>
  <unicode hex="006F"/>
    <anchor name="bottom" x="600" y="0"/>
    <anchor name="center" x="600" y="530"/>
    <anchor name="ogonek" x="600" y="10"/>
    <anchor name="top" x="600" y="1060"/>
    <anchor name="topright" x="1040" y="1060"/>
  <outline>
    <contour>
      <point x="600" y="-20" type="curve" smooth="yes"/>
      <point x="894" y="-20"/>
      <point x="1064" y="180"/>
      <point x="1064" y="530" type="curve" smooth="yes"/>
      <point x="1064" y="880"/>
      <point x="894" y="1080"/>
      <point x="600" y="1080" type="curve" smooth="yes"/>
      <point x="306" y="1080"/>
      <point x="136" y="880"/>
      <point x="136" y="530" type="curve" smooth="yes"/>
      <point x="136" y="180"/>
      <point x="306" y="-20"/>
    </contour>
    <contour>
      <point x="600" y="170" type="curve" smooth="yes"/>
      <point x="444" y="170"/>
      <point x="356" y="300"/>
      <point x="356" y="530" type="curve" smooth="yes"/>
      <point x="356" y="760"/>
      <point x="444" y="890"/>
      <point x="600" y="890" type="curve" smooth="yes"/>
      <point x="756" y="890"/>
      <point x="844" y="760"/>
      <point x="844" y="530" type="curve" smooth="yes"/>
      <point x="844" y="300"/>
      <point x="756" y="170"/>
    </contour>
    <contour>
      <point x="600" y="0" type="move" name="bottom"/>
    </contour>
    <contour>
      <point x="600" y="530" type="move" name="center"/>
    </contour>
    <contour>
      <point x="600" y="10" type="move" name="ogonek"/>
    </contour>
    <contour>
      <point x="600" y="1060" type="move" name="top"/>
    </contour>
    <contour>
      <point x="1040" y="1060" type="move" name="topright"/>
    </contour>
  </outline>
</glyph>
<glyph name="v" format="1">
  <advance width="1200"/>
  <unicode hex="0076"/>
    <anchor name="bottom" x="605" y="0"/>
    <anchor name="top" x="605" y="1060"/>
  <outline>
    <contour>
      <point x="746" y="0" type="line"/>
      <point x="1120" y="1060" type="line"/>
      <point x="894" y="1060" type="line"/>
      <point x="614" y="180" type="line"/>
      <point x="596" y="180" type="line"/>
      <point x="306" y="1060" type="line"/>
      <point x="80" y="1060" type="line"/>
      <point x="464" y="0" type="line"/>
    </contour>
    <contour>
      <point x="605" y="0" type="move" name="bottom"/>
    </contour>
    <contour>
      <point x="605" y="1060" type="move" name="top"/>
    </contour>
  </outline>
</glyph>
<glyph name="w" format="1">
  <advance width="1200"/>
  <unicode hex="0077"/>
    <anchor name="bottom" x="590" y="0"/>
    <anchor name="top" x="590" y="1060"/>
  <outline>
    <contour>
      <point x="980" y="0" type="line"/>
      <point x="1130" y="1060" type="line"/>
      <point x="920" y="1060" type="line"/>
      <point x="830" y="160" type="line"/>
      <point x="812" y="160" type="line"/>
      <point x="682" y="1060" type="line"/>
      <point x="498" y="1060" type="line"/>
      <point x="576" y="842" type="line"/>
      <point x="596" y="842" type="line"/>
      <point x="700" y="0" type="line"/>
    </contour>
    <contour>
      <point x="480" y="0" type="line"/>
      <point x="584" y="842" type="line"/>
      <point x="594" y="842" type="line"/>
      <point x="682" y="1060" type="line"/>
      <point x="498" y="1060" type="line"/>
      <point x="368" y="160" type="line"/>
      <point x="350" y="160" type="line"/>
      <point x="270" y="1060" type="line"/>
      <point x="70" y="1060" type="line"/>
      <point x="190" y="0" type="line"/>
    </contour>
    <contour>
      <point x="590" y="0" type="move" name="bottom"/>
    </contour>
    <contour>
      <point x="590" y="1060" type="move" name="top"/>
    </contour>
  </outline>
</glyph>
<glyph name="x" format="1">
  <advance width="1200"/>
  <unicode hex="0078"/>
    <anchor name="bottom" x="600" y="0"/>
    <anchor name="top" x="600" y="1060"/>
  <outline>
    <contour>
      <point x="532" y="458" type="line"/>
      <point x="106" y="1060" type="line"/>
      <point x="346" y="1060" type="line"/>
      <point x="672" y="584" type="line"/>
      <point x="1094" y="0" type="line"/>
      <point x="854" y="0" type="line"/>
    </contour>
    <contour>
      <point x="528" y="584" type="line"/>
      <point x="854" y="1060" type="line"/>
      <point x="1094" y="1060" type="line"/>
      <point x="656" y="458" type="line"/>
      <point x="346" y="0" type="line"/>
      <point x="106" y="0" type="line"/>
    </contour>
    <contour>
      <point x="600" y="0" type="move" name="bottom"/>
    </contour>
    <contour>
      <point x="600" y="1060" type="move" name="top"/>
    </contour>
  </outline>
</glyph>
<glyph name="y" format="1">
  <advance width="1200"/>
  <unicode hex="0079"/>
    <anchor name="bottom" x="940" y="0"/>
    <anchor name="top" x="610" y="1060"/>
  <outline>
    <contour>
      <point x="250" y="-460" type="line"/>
      <point x="534" y="-430"/>
      <point x="684" y="-286"/>
      <point x="804" y="94" type="curve" smooth="yes"/>
      <point x="1110" y="1060" type="line"/>
      <point x="890" y="1060" type="line"/>
      <point x="626" y="144" type="line" smooth="yes"/>
      <point x="546" y="-136"/>
      <point x="436" y="-244"/>
      <point x="226" y="-270" type="curve" smooth="yes"/>
      <point x="60" y="-290" type="line"/>
      <point x="70" y="-480" type="line"/>
    </contour>
    <contour>
      <point x="628" y="0" type="line"/>
      <point x="628" y="160" type="line"/>
      <point x="606" y="160" type="line"/>
      <point x="270" y="1060" type="line"/>
      <point x="50" y="1060" type="line"/>
      <point x="462" y="0" type="line"/>
    </contour>
    <contour>
      <point x="940" y="0" type="move" name="bottom"/>
    </contour>
    <contour>
      <point x="610" y="1060" type="move" name="top"/>
    </contour>
  </outline>
</glyph>
<glyph name="z" format="1">
  <advance width="1200"/>
  <unicode hex="007A"/>
    <anchor name="bottom" x="600" y="0"/>
    <anchor name="center" x="600" y="530"/>
    <anchor name="top" x="600" y="1060"/>
  <outline>
    <contour>
      <point x="1016" y="884" type="line"/>
      <point x="880" y="1002" type="line"/>
      <point x="160" y="176" type="line"/>
      <point x="312" y="54" type="line"/>
    </contour>
    <contour>
      <point x="1036" y="0" type="line"/>
      <point x="1036" y="176" type="line"/>
      <point x="160" y="176" type="line"/>
      <point x="160" y="0" type="line"/>
    </contour>
    <contour>
      <point x="1016" y="884" type="line"/>
      <point x="1016" y="1060" type="line"/>
      <point x="160" y="1060" type="line"/>
      <point x="160" y="884" type="line"/>
    </contour>
    <contour>
      <point x="600" y="0" type="move" name="bottom"/>
    </contour>
    <contour>
      <point x="600" y="530" type="move" name="center"/>
    </contour>
    <contour>
      <point x="600" y="1060" type="move" name="top"/>
    </contour>
  </outline>
</glyph>
<glyph name="dieresis" format="1">
  <advance width="1200"/>
  <unicode hex="00A8"/>
  <outline>
    <contour>
      <point x="390" y="1238" type="curve" smooth="yes"/>
      <point x="464" y="1238"/>
      <point x="524" y="1298"/>
      <point x="524" y="1372" type="curve" smooth="yes"/>
      <point x="524" y="1447"/>
      <point x="464" y="1506"/>
      <point x="390" y="1506" type="curve" smooth="yes"/>
      <point x="316" y="1506"/>
      <point x="256" y="1447"/>
      <point x="256" y="1372" type="curve" smooth="yes"/>
      <point x="256" y="1298"/>
      <point x="316" y="1238"/>
    </contour>
    <contour>
      <point x="810" y="1238" type="curve" smooth="yes"/>
      <point x="884" y="1238"/>
      <point x="944" y="1298"/>
      <point x="944" y="1372" type="curve" smooth="yes"/>
      <point x="944" y="1447"/>
      <point x="884" y="1506"/>
      <point x="810" y="1506" type="curve" smooth="yes"/>
      <point x="736" y="1506"/>
      <point x="676" y="1447"/>
      <point x="676" y="1372" type="curve" smooth="yes"/>
      <point x="676" y="1298"/>
      <point x="736" y="1238"/>
    </contour>
  </outline>
</glyph>
<glyph name="macron" format="1">
  <advance width="1200"/>
  <unicode hex="00AF"/>
  <outline>
    <contour>
      <point x="1030" y="1248" type="line"/>
      <point x="1030" y="1436" type="line"/>
      <point x="170" y="1436" type="line"/>
      <point x="170" y="1248" type="line"/>
    </contour>
  </outline>
</glyph>
<glyph name="plusminus" format="1">
  <advance width="1200"/>
  <unicode hex="00B1"/>
  <outline>
    <contour>
      <point x="696" y="246" type="line"/>
      <point x="696" y="1224" type="line"/>
      <point x="504" y="1224" type="line"/>
      <point x="504" y="246" type="line"/>
    </contour>
    <contour>
      <point x="1100" y="683" type="line"/>
      <point x="1100" y="869" type="line"/>
      <point x="100" y="869" type="line"/>
      <point x="100" y="683" type="line"/>
    </contour>
    <component base="hyphen" yOffset="-430"/>
  </outline>
</glyph>
<glyph name="acute" format="1">
  <advance width="1200"/>
  <unicode hex="00B4"/>
  <outline>
    <contour>
      <point x="851" y="1628" type="line"/>
      <point x="639" y="1628" type="line"/>
      <point x="469" y="1248" type="line"/>
      <point x="661" y="1248" type="line"/>
    </contour>
  </outline>
</glyph>
<glyph name="cedilla" format="1">
  <advance width="1200"/>
  <unicode hex="00B8"/>
  <outline>
    <contour>
      <point x="540" y="-190" type="line"/>
      <point x="649" y="-190"/>
      <point x="702" y="-212"/>
      <point x="702" y="-258" type="curve" smooth="yes"/>
      <point x="702" y="-306"/>
      <point x="640" y="-330"/>
      <point x="514" y="-330" type="curve"/>
      <point x="514" y="-480" type="line"/>
      <point x="767" y="-480"/>
      <point x="892" y="-409"/>
      <point x="892" y="-267" type="curve" smooth="yes"/>
      <point x="892" y="-179"/>
      <point x="835" y="-124"/>
      <point x="720" y="-100" type="curve"/>
      <point x="750" y="12" type="line"/>
      <point x="624" y="49" type="line"/>
    </contour>
  </outline>
</glyph>
<glyph name="guillemetright" format="1">
  <advance width="1200"/>
  <unicode hex="00BB"/>
  <outline>
    <contour>
      <point x="604" y="458" type="line"/>
      <point x="604" y="600" type="line"/>
      <point x="116" y="984" type="line"/>
      <point x="116" y="774" type="line"/>
      <point x="416" y="538" type="line"/>
      <point x="416" y="520" type="line"/>
      <point x="116" y="284" type="line"/>
      <point x="116" y="74" type="line"/>
    </contour>
    <contour>
      <point x="1124" y="458" type="line"/>
      <point x="1124" y="600" type="line"/>
      <point x="636" y="984" type="line"/>
      <point x="636" y="774" type="line"/>
      <point x="936" y="538" type="line"/>
      <point x="936" y="520" type="line"/>
      <point x="636" y="284" type="line"/>
      <point x="636" y="74" type="line"/>
    </contour>
  </outline>
</glyph>
<glyph name="multiply" format="1">
  <advance width="1200"/>
  <unicode hex="00D7"/>
  <outline>
    <contour>
      <point x="121" y="1065" type="line"/>
      <point x="249" y="1188" type="line"/>
      <point x="1079" y="309" type="line"/>
      <point x="951" y="188" type="line"/>
    </contour>
    <contour>
      <point x="121" y="309" type="line"/>
      <point x="951" y="1188" type="line"/>
      <point x="1079" y="1065" type="line"/>
      <point x="249" y="188" type="line"/>
    </contour>
  </outline>
</glyph>
<glyph name="Dcroat" format="1">
  <advance width="1200"/>
  <unicode hex="0110"/>
  <outline>
    <contour>
      <point x="681" y="612" type="line"/>
      <point x="681" y="802" type="line"/>
      <point x="42" y="802" type="line"/>
      <point x="42" y="612" type="line"/>
    </contour>
    <component base="D"/>
  </outline>
</glyph>
<glyph name="idotless" format="1">
  <advance width="1200"/>
  <unicode hex="0131"/>
    <anchor name="bottom" x="670" y="0"/>
    <anchor name="ogonek" x="1080" y="10"/>
    <anchor name="top" x="650" y="1060"/>
  <outline>
    <contour>
      <point x="776" y="0" type="line"/>
      <point x="776" y="1060" type="line"/>
      <point x="564" y="1060" type="line"/>
      <point x="564" y="0" type="line"/>
    </contour>
    <contour>
      <point x="584" y="0" type="line"/>
      <point x="584" y="174" type="line"/>
      <point x="160" y="174" type="line"/>
      <point x="160" y="0" type="line"/>
    </contour>
    <contour>
      <point x="1102" y="0" type="line"/>
      <point x="1102" y="174" type="line"/>
      <point x="756" y="174" type="line"/>
      <point x="756" y="0" type="line"/>
    </contour>
    <contour>
      <point x="584" y="884" type="line"/>
      <point x="584" y="1060" type="line"/>
      <point x="220" y="1060" type="line"/>
      <point x="220" y="884" type="line"/>
    </contour>
    <contour>
      <point x="670" y="0" type="move" name="bottom"/>
    </contour>
    <contour>
      <point x="1080" y="10" type="move" name="ogonek"/>
    </contour>
    <contour>
      <point x="650" y="1060" type="move" name="top"/>
    </contour>
  </outline>
</glyph>
<glyph name="tbar" format="1">
  <advance width="1200"/>
  <unicode hex="0167"/>
  <outline>
    <contour>
      <point x="1020" y="496" type="line"/>
      <point x="1020" y="672" type="line"/>
      <point x="60" y="672" type="line"/>
      <point x="60" y="496" type="line"/>
    </contour>
    <component base="t"/>
  </outline>
</glyph>
<glyph name="Aringacute" format="1">
  <advance width="1200"/>
  <unicode hex="01FA"/>
  <outline>
    <contour>
      <point x="252" y="0" type="line"/>
      <point x="588" y="1248" type="line"/>
      <point x="606" y="1248" type="line"/>
      <point x="942" y="0" type="line"/>
      <point x="1152" y="0" type="line"/>
      <point x="742" y="1420" type="line"/>
      <point x="452" y="1420" type="line"/>
      <point x="42" y="0" type="line"/>
    </contour>
    <contour>
      <point x="952" y="346" type="line"/>
      <point x="952" y="536" type="line"/>
      <point x="232" y="536" type="line"/>
      <point x="232" y="346" type="line"/>
    </contour>
    <component base="acutecomb.case" yOffset="240"/>
    <component base="A"/>
    <component base="ringcomb.case"/>
  </outline>
</glyph>
<glyph name="Oslashacute" format="1">
  <advance width="1200"/>
  <unicode hex="01FE"/>
  <outline>
    <contour>
      <point x="1114" y="1457" type="line"/>
      <point x="979" y="1532" type="line"/>
      <point x="66" y="-59" type="line"/>
      <point x="201" y="-134" type="line"/>
    </contour>
    <component base="O"/>
    <component base="acutecomb.case"/>
  </outline>
</glyph>
<glyph name="oslashacute" format="1">
  <advance width="1200"/>
  <unicode hex="01FF"/>
  <outline>
    <contour>
      <point x="1011" y="1133" type="line"/>
      <point x="896" y="1198" type="line"/>
      <point x="196" y="-59" type="line"/>
      <point x="301" y="-134" type="line"/>
    </contour>
    <component base="o"/>
    <component base="acute" xOffset="30"/>
  </outline>
</glyph>
<glyph name="jdotless" format="1">
  <advance width="1200"/>
  <unicode hex="0237"/>
    <anchor name="bottom" x="780" y="-480"/>
    <anchor name="top" x="782" y="1060"/>
  <outline>
    <contour>
      <point x="350" y="-468" type="line"/>
      <point x="726" y="-438"/>
      <point x="888" y="-284"/>
      <point x="888" y="94" type="curve" smooth="yes"/>
      <point x="888" y="384" type="line"/>
      <point x="676" y="384" type="line"/>
      <point x="676" y="62" type="line" smooth="yes"/>
      <point x="676" y="-156"/>
      <point x="584" y="-254"/>
      <point x="370" y="-274" type="curve" smooth="yes"/>
      <point x="170" y="-292" type="line"/>
      <point x="180" y="-480" type="line"/>
    </contour>
    <contour>
      <point x="692" y="884" type="line"/>
      <point x="692" y="1060" type="line"/>
      <point x="264" y="1060" type="line"/>
      <point x="264" y="884" type="line"/>
    </contour>
    <contour>
      <point x="888" y="350" type="line"/>
      <point x="888" y="1060" type="line"/>
      <point x="676" y="1060" type="line"/>
      <point x="676" y="350" type="line"/>
    </contour>
    <contour>
      <point x="780" y="-480" type="move" name="bottom"/>
    </contour>
    <contour>
      <point x="782" y="1060" type="move" name="top"/>
    </contour>
  </outline>
</glyph>
<glyph name="caron" format="1">
  <advance width="1200"/>
  <unicode hex="02C7"/>
  <outline>
    <contour>
      <point x="714" y="1628" type="line"/>
      <point x="590" y="1372" type="line"/>
      <point x="610" y="1372" type="line"/>
      <point x="486" y="1628" type="line"/>
      <point x="274" y="1628" type="line"/>
      <point x="514" y="1248" type="line"/>
      <point x="686" y="1248" type="line"/>
      <point x="926" y="1628" type="line"/>
    </contour>
  </outline>
</glyph>
<glyph name="breve" format="1">
  <advance width="1200"/>
  <unicode hex="02D8"/>
  <outline>
    <contour>
      <point x="600" y="1238" type="curve" smooth="yes"/>
      <point x="787" y="1238"/>
      <point x="894" y="1348"/>
      <point x="894" y="1540" type="curve" smooth="yes"/>
      <point x="894" y="1593" type="line"/>
      <point x="719" y="1593" type="line"/>
      <point x="719" y="1540" type="line" smooth="yes"/>
      <point x="719" y="1434"/>
      <point x="676" y="1374"/>
      <point x="600" y="1374" type="curve" smooth="yes"/>
      <point x="524" y="1374"/>
      <point x="481" y="1434"/>
      <point x="481" y="1540" type="curve" smooth="yes"/>
      <point x="481" y="1593" type="line"/>
      <point x="306" y="1593" type="line"/>
      <point x="306" y="1540" type="line" smooth="yes"/>
      <point x="306" y="1348"/>
      <point x="413" y="1238"/>
    </contour>
  </outline>
</glyph>
<glyph name="dotaccent" format="1">
  <advance width="1200"/>
  <unicode hex="02D9"/>
  <outline>
    <contour>
      <point x="600" y="1238" type="curve" smooth="yes"/>
      <point x="674" y="1238"/>
      <point x="734" y="1298"/>
      <point x="734" y="1372" type="curve" smooth="yes"/>
      <point x="734" y="1447"/>
      <point x="674" y="1506"/>
      <point x="600" y="1506" type="curve" smooth="yes"/>
      <point x="526" y="1506"/>
      <point x="466" y="1447"/>
      <point x="466" y="1372" type="curve" smooth="yes"/>
      <point x="466" y="1298"/>
      <point x="526" y="1238"/>
    </contour>
  </outline>
</glyph>
<glyph name="ring" format="1">
  <advance width="1200"/>
  <unicode hex="02DA"/>
  <outline>
    <contour>
      <point x="600" y="1198" type="curve" smooth="yes"/>
      <point x="751" y="1198"/>
      <point x="838" y="1277"/>
      <point x="838" y="1414" type="curve" smooth="yes"/>
      <point x="838" y="1551"/>
      <point x="751" y="1630"/>
      <point x="600" y="1630" type="curve" smooth="yes"/>
      <point x="449" y="1630"/>
      <point x="362" y="1551"/>
      <point x="362" y="1414" type="curve" smooth="yes"/>
      <point x="362" y="1277"/>
      <point x="449" y="1198"/>
    </contour>
    <contour>
      <point x="600" y="1314" type="curve" smooth="yes"/>
      <point x="538" y="1314"/>
      <point x="504" y="1350"/>
      <point x="504" y="1414" type="curve" smooth="yes"/>
      <point x="504" y="1478"/>
      <point x="538" y="1515"/>
      <point x="600" y="1515" type="curve" smooth="yes"/>
      <point x="662" y="1515"/>
      <point x="696" y="1478"/>
      <point x="696" y="1414" type="curve" smooth="yes"/>
      <point x="696" y="1350"/>
      <point x="662" y="1314"/>
    </contour>
  </outline>
</glyph>
<glyph name="hungarumlaut" format="1">
  <advance width="1200"/>
  <unicode hex="02DD"/>
  <outline>
    <contour>
      <point x="591" y="1628" type="line"/>
      <point x="369" y="1628" type="line"/>
      <point x="219" y="1248" type="line"/>
      <point x="421" y="1248" type="line"/>
    </contour>
    <contour>
      <point x="971" y="1628" type="line"/>
      <point x="749" y="1628" type="line"/>
      <point x="599" y="1248" type="line"/>
      <point x="801" y="1248" type="line"/>
    </contour>
  </outline>
</glyph>
<glyph name="commaturnedabovecomb" format="1">
  <advance width="1200"/>
  <unicode hex="0312"/>
    <anchor name="_top" x="590" y="1060"/>
  <outline>
    <contour>
      <point x="582" y="1588" type="line"/>
      <point x="492" y="1208" type="line"/>
      <point x="704" y="1208" type="line"/>
      <point x="754" y="1588" type="line"/>
    </contour>
    <contour>
      <point x="590" y="1060" type="move" name="_top"/>
    </contour>
  </outline>
</glyph>
<glyph name="dotbelowcomb" format="1">
  <advance width="1200"/>
  <unicode hex="0323"/>
    <anchor name="_bottom" x="600" y="0"/>
  <outline>
    <contour>
      <point x="600" y="-420" type="curve" smooth="yes"/>
      <point x="674" y="-420"/>
      <point x="734" y="-360"/>
      <point x="734" y="-286" type="curve" smooth="yes"/>
      <point x="734" y="-211"/>
      <point x="674" y="-152"/>
      <point x="600" y="-152" type="curve" smooth="yes"/>
      <point x="526" y="-152"/>
      <point x="466" y="-211"/>
      <point x="466" y="-286" type="curve" smooth="yes"/>
      <point x="466" y="-360"/>
      <point x="526" y="-420"/>
    </contour>
    <contour>
      <point x="600" y="0" type="move" name="_bottom"/>
    </contour>
  </outline>
</glyph>
<glyph name="commaaccentcomb" format="1">
  <advance width="1200"/>
  <unicode hex="0326"/>
    <anchor name="_bottom" x="600" y="0"/>
  <outline>
    <contour>
      <point x="597" y="-480" type="line"/>
      <point x="714" y="-140" type="line"/>
      <point x="492" y="-140" type="line"/>
      <point x="415" y="-480" type="line"/>
    </contour>
    <contour>
      <point x="600" y="0" type="move" name="_bottom"/>
    </contour>
  </outline>
</glyph>
<glyph name="guilsinglright" format="1">
  <advance width="1200"/>
  <unicode hex="203A"/>
  <outline>
    <contour>
      <point x="964" y="458" type="line"/>
      <point x="964" y="600" type="line"/>
      <point x="266" y="984" type="line"/>
      <point x="266" y="784" type="line"/>
      <point x="736" y="538" type="line"/>
      <point x="736" y="520" type="line"/>
      <point x="266" y="274" type="line"/>
      <point x="266" y="74" type="line"/>
    </contour>
  </outline>
</glyph>
<glyph name="SF110000" format="1">
  <advance width="1200"/>
  <unicode hex="2502"/>
  <outline>
    <contour>
      <point x="690" y="-500" type="line"/>
      <point x="690" y="1588" type="line"/>
      <point x="510" y="1588" type="line"/>
      <point x="510" y="-500" type="line"/>
    </contour>
  </outline>
</glyph>
<glyph name="uni2504" format="1">
  <advance width="1200"/>
  <unicode hex="2504"/>
  <outline>
    <contour>
      <point x="339.9" y="456" type="line"/>
      <point x="339.9" y="632" type="line"/>
      <point x="59.9004" y="632" type="line"/>
      <point x="59.9004" y="456" type="line"/>
    </contour>
    <contour>
      <point x="1139.9" y="456" type="line"/>
      <point x="1139.9" y="632" type="line"/>
      <point x="859.9" y="632" type="line"/>
      <point x="859.9" y="456" type="line"/>
    </contour>
    <contour>
      <point x="739.9" y="456" type="line"/>
      <point x="739.9" y="632" type="line"/>
      <point x="459.9" y="632" type="line"/>
      <point x="459.9" y="456" type="line"/>
    </contour>
  </outline>
</glyph>
<glyph name="uni2507" format="1">
  <advance width="1200"/>
  <unicode hex="2507"/>
  <outline>
    <contour>
      <point x="780" y="-420" type="line"/>
      <point x="780" y="143" type="line"/>
      <point x="420" y="143" type="line"/>
      <point x="420" y="-420" type="line"/>
    </contour>
    <contour>
      <point x="780" y="263" type="line"/>
      <point x="780" y="825" type="line"/>
      <point x="420" y="825" type="line"/>
      <point x="420" y="263" type="line"/>
    </contour>
    <contour>
      <point x="780" y="945" type="line"/>
      <point x="780" y="1508" type="line"/>
      <point x="420" y="1508" type="line"/>
      <point x="420" y="945" type="line"/>
    </contour>
  </outline>
</glyph>
<glyph name="uni2508" format="1">
  <advance width="1200"/>
  <unicode hex="2508"/>
  <outline>
    <contour>
      <point x="240" y="456" type="line"/>
      <point x="240" y="632" type="line"/>
      <point x="59.9004" y="632" type="line"/>
      <point x="59.9004" y="456" type="line"/>
    </contour>
    <contour>
      <point x="1139.66" y="456" type="line"/>
      <point x="1139.66" y="632" type="line"/>
      <point x="959.558" y="632" type="line"/>
      <point x="959.558" y="456" type="line"/>
    </contour>
    <contour>
      <point x="540" y="456" type="line"/>
      <point x="540" y="632" type="line"/>
      <point x="359.9" y="632" type="line"/>
      <point x="359.9" y="456" type="line"/>
    </contour>
    <contour>
      <point x="839.657" y="456" type="line"/>
      <point x="839.657" y="632" type="line"/>
      <point x="659.558" y="632" type="line"/>
      <point x="659.558" y="456" type="line"/>
    </contour>
  </outline>
</glyph>
<glyph name="uni2509" format="1">
  <advance width="1200"/>
  <unicode hex="2509"/>
  <outline>
    <contour>
      <point x="240" y="368" type="line"/>
      <point x="240" y="720" type="line"/>
      <point x="59.9004" y="720" type="line"/>
      <point x="59.9004" y="368" type="line"/>
    </contour>
    <contour>
      <point x="1139.66" y="368" type="line"/>
      <point x="1139.66" y="720" type="line"/>
      <point x="959.558" y="720" type="line"/>
      <point x="959.558" y="368" type="line"/>
    </contour>
    <contour>
      <point x="540" y="368" type="line"/>
      <point x="540" y="720" type="line"/>
      <point x="359.9" y="720" type="line"/>
      <point x="359.9" y="368" type="line"/>
    </contour>
    <contour>
      <point x="839.657" y="368" type="line"/>
      <point x="839.657" y="720" type="line"/>
      <point x="659.558" y="720" type="line"/>
      <point x="659.558" y="368" type="line"/>
    </contour>
  </outline>
</glyph>
<glyph name="uni250F" format="1">
  <advance width="1200"/>
  <unicode hex="250F"/>
  <outline>
    <contour>
      <point x="780" y="-500" type="line"/>
      <point x="780" y="720" type="line"/>
      <point x="420" y="720" type="line"/>
      <point x="420" y="-500" type="line"/>
    </contour>
    <contour>
      <point x="1219.9" y="368" type="line"/>
      <point x="1219.9" y="720" type="line"/>
      <point x="419.9" y="720" type="line"/>
      <point x="419.9" y="368" type="line"/>
    </contour>
  </outline>
</glyph>
<glyph name="uni2515" format="1">
  <advance width="1200"/>
  <unicode hex="2515"/>
  <outline>
    <contour>
      <point x="1219.9" y="368" type="line"/>
      <point x="1219.9" y="720" type="line"/>
      <point x="509.9" y="720" type="line"/>
      <point x="509.9" y="368" type="line"/>
    </contour>
    <contour>
      <point x="690.177" y="368.26" type="line"/>
      <point x="690.177" y="1588.26" type="line"/>
      <point x="510.177" y="1588.26" type="line"/>
      <point x="510.177" y="368.26" type="line"/>
    </contour>
  </outline>
</glyph>
<glyph name="uni2516" format="1">
  <advance width="1200"/>
  <unicode hex="2516"/>
  <outline>
    <contour>
      <point x="1219.9" y="456" type="line"/>
      <point x="1219.9" y="632" type="line"/>
      <point x="419.9" y="632" type="line"/>
      <point x="419.9" y="456" type="line"/>
    </contour>
    <contour>
      <point x="780.495" y="455.841" type="line"/>
      <point x="780.495" y="1587.84" type="line"/>
      <point x="420.495" y="1587.84" type="line"/>
      <point x="420.495" y="455.841" type="line"/>
    </contour>
  </outline>
</glyph>
<glyph name="uni2517" format="1">
  <advance width="1200"/>
  <unicode hex="2517"/>
  <outline>
    <contour>
      <point x="780.183" y="367.832" type="line"/>
      <point x="780.183" y="1587.83" type="line"/>
      <point x="420.183" y="1587.83" type="line"/>
      <point x="420.183" y="367.832" type="line"/>
    </contour>
    <contour>
      <point x="1219.9" y="368" type="line"/>
      <point x="1219.9" y="720" type="line"/>
      <point x="419.9" y="720" type="line"/>
      <point x="419.9" y="368" type="line"/>
    </contour>
  </outline>
</glyph>
<glyph name="uni2519" format="1">
  <advance width="1200"/>
  <unicode hex="2519"/>
  <outline>
    <contour>
      <point x="690" y="368" type="line"/>
      <point x="690" y="720" type="line"/>
      <point x="-20" y="720" type="line"/>
      <point x="-20" y="368" type="line"/>
    </contour>
    <contour>
      <point x="689.504" y="368" type="line"/>
      <point x="689.504" y="1588" type="line"/>
      <point x="509.504" y="1588" type="line"/>
      <point x="509.504" y="368" type="line"/>
    </contour>
  </outline>
</glyph>
<glyph name="uni251B" format="1">
  <advance width="1200"/>
  <unicode hex="251B"/>
  <outline>
    <contour>
      <point x="780" y="367.712" type="line"/>
      <point x="780" y="1587.71" type="line"/>
      <point x="420" y="1587.71" type="line"/>
      <point x="420" y="367.712" type="line"/>
    </contour>
    <contour>
      <point x="780" y="368" type="line"/>
      <point x="780" y="720" type="line"/>
      <point x="-20" y="720" type="line"/>
      <point x="-20" y="368" type="line"/>
    </contour>
  </outline>
</glyph>
<glyph name="uni2526" format="1">
  <advance width="1200"/>
  <unicode hex="2526"/>
  <outline>
    <contour>
      <point x="690" y="456" type="line"/>
      <point x="690" y="632" type="line"/>
      <point x="-20" y="632" type="line"/>
      <point x="-20" y="456" type="line"/>
    </contour>
    <contour>
      <point x="690" y="-500" type="line"/>
      <point x="690" y="632" type="line"/>
      <point x="510" y="632" type="line"/>
      <point x="510" y="-500" type="line"/>
    </contour>
    <contour>
      <point x="780.183" y="455.832" type="line"/>
      <point x="780.183" y="1587.83" type="line"/>
      <point x="420.183" y="1587.83" type="line"/>
      <point x="420.183" y="455.832" type="line"/>
    </contour>
  </outline>
</glyph>
<glyph name="uni2527" format="1">
  <advance width="1200"/>
  <unicode hex="2527"/>
  <outline>
    <contour>
      <point x="690" y="456" type="line"/>
      <point x="690" y="632" type="line"/>
      <point x="-20" y="632" type="line"/>
      <point x="-20" y="456" type="line"/>
    </contour>
    <contour>
      <point x="690" y="455.777" type="line"/>
      <point x="690" y="1587.78" type="line"/>
      <point x="510" y="1587.78" type="line"/>
      <point x="510" y="455.777" type="line"/>
    </contour>
    <contour>
      <point x="780" y="-500" type="line"/>
      <point x="780" y="632" type="line"/>
      <point x="420" y="632" type="line"/>
      <point x="420" y="-500" type="line"/>
    </contour>
  </outline>
</glyph>
<glyph name="uni2529" format="1">
  <advance width="1200"/>
  <unicode hex="2529"/>
  <outline>
    <contour>
      <point x="780.183" y="367.832" type="line"/>
      <point x="780.183" y="1587.83" type="line"/>
      <point x="420.183" y="1587.83" type="line"/>
      <point x="420.183" y="367.832" type="line"/>
    </contour>
    <contour>
      <point x="610.183" y="368" type="line"/>
      <point x="610.183" y="720" type="line"/>
      <point x="-19.8174" y="720" type="line"/>
      <point x="-19.8174" y="368" type="line"/>
    </contour>
    <contour>
      <point x="690" y="-500" type="line"/>
      <point x="690" y="720" type="line"/>
      <point x="510" y="720" type="line"/>
      <point x="510" y="-500" type="line"/>
    </contour>
  </outline>
</glyph>
<glyph name="uni2536" format="1">
  <advance width="1200"/>
  <unicode hex="2536"/>
  <outline>
    <contour>
      <point x="690" y="456" type="line"/>
      <point x="690" y="632" type="line"/>
      <point x="-20" y="632" type="line"/>
      <point x="-20" y="456" type="line"/>
    </contour>
    <contour>
      <point x="689.552" y="546.122" type="line"/>
      <point x="689.552" y="1588.12" type="line"/>
      <point x="509.552" y="1588.12" type="line"/>
      <point x="509.552" y="546.122" type="line"/>
    </contour>
    <contour>
      <point x="1219.9" y="368" type="line"/>
      <point x="1219.9" y="720" type="line"/>
      <point x="509.9" y="720" type="line"/>
      <point x="509.9" y="368" type="line"/>
    </contour>
  </outline>
</glyph>
<glyph name="uni2537" format="1">
  <advance width="1200"/>
  <unicode hex="2537"/>
  <outline>
    <contour>
      <point x="1219.9" y="368" type="line"/>
      <point x="1219.9" y="720" type="line"/>
      <point x="-20.0996" y="720" type="line"/>
      <point x="-20.0996" y="368" type="line"/>
    </contour>
    <contour>
      <point x="689.626" y="438.052" type="line"/>
      <point x="689.626" y="1588.05" type="line"/>
      <point x="509.626" y="1588.05" type="line"/>
      <point x="509.626" y="438.052" type="line"/>
    </contour>
  </outline>
</glyph>
<glyph name="uni2540" format="1">
  <advance width="1200"/>
  <unicode hex="2540"/>
  <outline>
    <contour>
      <point x="1219.9" y="456" type="line"/>
      <point x="1219.9" y="632" type="line"/>
      <point x="-20.0996" y="632" type="line"/>
      <point x="-20.0996" y="456" type="line"/>
    </contour>
    <contour>
      <point x="690" y="-500" type="line"/>
      <point x="690" y="562" type="line"/>
      <point x="510" y="562" type="line"/>
      <point x="510" y="-500" type="line"/>
    </contour>
    <contour>
      <point x="780.495" y="515.841" type="line"/>
      <point x="780.495" y="1587.84" type="line"/>
      <point x="420.495" y="1587.84" type="line"/>
      <point x="420.495" y="515.841" type="line"/>
    </contour>
  </outline>
</glyph>
<glyph name="uni2541" format="1">
  <advance width="1200"/>
  <unicode hex="2541"/>
  <outline>
    <contour>
      <point x="1219.9" y="456" type="line"/>
      <point x="1219.9" y="632" type="line"/>
      <point x="-20.0996" y="632" type="line"/>
      <point x="-20.0996" y="456" type="line"/>
    </contour>
    <contour>
      <point x="689.714" y="526.432" type="line"/>
      <point x="689.714" y="1588.43" type="line"/>
      <point x="509.714" y="1588.43" type="line"/>
      <point x="509.714" y="526.432" type="line"/>
    </contour>
    <contour>
      <point x="780" y="-500" type="line"/>
      <point x="780" y="540" type="line"/>
      <point x="420" y="540" type="line"/>
      <point x="420" y="-500" type="line"/>
    </contour>
  </outline>
</glyph>
<glyph name="uni2543" format="1">
  <advance width="1200"/>
  <unicode hex="2543"/>
  <outline>
    <contour>
      <point x="780" y="537.712" type="line"/>
      <point x="780" y="1587.71" type="line"/>
      <point x="420" y="1587.71" type="line"/>
      <point x="420" y="537.712" type="line"/>
    </contour>
    <contour>
      <point x="660" y="368" type="line"/>
      <point x="660" y="720" type="line"/>
      <point x="-20" y="720" type="line"/>
      <point x="-20" y="368" type="line"/>
    </contour>
    <contour>
      <point x="1219.9" y="456" type="line"/>
      <point x="1219.9" y="632" type="line"/>
      <point x="509.9" y="632" type="line"/>
      <point x="509.9" y="456" type="line"/>
    </contour>
    <contour>
      <point x="690" y="-500" type="line"/>
      <point x="690" y="632" type="line"/>
      <point x="510" y="632" type="line"/>
      <point x="510" y="-500" type="line"/>
    </contour>
  </outline>
</glyph>
<glyph name="uni2544" format="1">
  <advance width="1200"/>
  <unicode hex="2544"/>
  <outline>
    <contour>
      <point x="780.183" y="527.832" type="line"/>
      <point x="780.183" y="1587.83" type="line"/>
      <point x="420.183" y="1587.83" type="line"/>
      <point x="420.183" y="527.832" type="line"/>
    </contour>
    <contour>
      <point x="1219.9" y="368" type="line"/>
      <point x="1219.9" y="720" type="line"/>
      <point x="559.9" y="720" type="line"/>
      <point x="559.9" y="368" type="line"/>
    </contour>
    <contour>
      <point x="690" y="456" type="line"/>
      <point x="690" y="632" type="line"/>
      <point x="-20" y="632" type="line"/>
      <point x="-20" y="456" type="line"/>
    </contour>
    <contour>
      <point x="690" y="-500" type="line"/>
      <point x="690" y="632" type="line"/>
      <point x="510" y="632" type="line"/>
      <point x="510" y="-500" type="line"/>
    </contour>
  </outline>
</glyph>
<glyph name="uni2546" format="1">
  <advance width="1200"/>
  <unicode hex="2546"/>
  <outline>
    <contour>
      <point x="780" y="-500" type="line"/>
      <point x="780" y="540" type="line"/>
      <point x="420" y="540" type="line"/>
      <point x="420" y="-500" type="line"/>
    </contour>
    <contour>
      <point x="1219.9" y="368" type="line"/>
      <point x="1219.9" y="720" type="line"/>
      <point x="599.9" y="720" type="line"/>
      <point x="599.9" y="368" type="line"/>
    </contour>
    <contour>
      <point x="690" y="456" type="line"/>
      <point x="690" y="632" type="line"/>
      <point x="-20" y="632" type="line"/>
      <point x="-20" y="456" type="line"/>
    </contour>
    <contour>
      <point x="690.427" y="456" type="line"/>
      <point x="690.427" y="1588" type="line"/>
      <point x="510.427" y="1588" type="line"/>
      <point x="510.427" y="456" type="line"/>
    </contour>
  </outline>
</glyph>
<glyph name="uni254C" format="1">
  <advance width="1200"/>
  <unicode hex="254C"/>
  <outline>
    <contour>
      <point x="59.9004" y="632" type="line"/>
      <point x="59.9004" y="456" type="line"/>
      <point x="540" y="456" type="line"/>
      <point x="540" y="632" type="line"/>
    </contour>
    <contour>
      <point x="659.558" y="632" type="line"/>
      <point x="659.558" y="456" type="line"/>
      <point x="1139.66" y="456" type="line"/>
      <point x="1139.66" y="632" type="line"/>
    </contour>
  </outline>
</glyph>
<glyph name="uni254E" format="1">
  <advance width="1200"/>
  <unicode hex="254E"/>
  <outline>
    <contour>
      <point x="690" y="-420" type="line"/>
      <point x="690" y="484" type="line"/>
      <point x="510" y="484" type="line"/>
      <point x="510" y="-420" type="line"/>
    </contour>
    <contour>
      <point x="690" y="604" type="line"/>
      <point x="690" y="1508" type="line"/>
      <point x="510" y="1508" type="line"/>
      <point x="510" y="604" type="line"/>
    </contour>
  </outline>
</glyph>
<glyph name="boxDoubleVertical" format="1">
  <advance width="1200"/>
  <unicode hex="2551"/>
  <outline>
    <contour>
      <point x="918" y="-750" type="line"/>
      <point x="918" y="1808" type="line"/>
      <point x="706" y="1808" type="line"/>
      <point x="706" y="-750" type="line"/>
    </contour>
    <contour>
      <point x="494" y="-750" type="line"/>
      <point x="494" y="1808" type="line"/>
      <point x="282" y="1808" type="line"/>
      <point x="282" y="-750" type="line"/>
    </contour>
  </outline>
</glyph>
<glyph name="SF510000" format="1">
  <advance width="1200"/>
  <unicode hex="2552"/>
  <outline>
    <contour>
      <point x="690" y="-500" type="line"/>
      <point x="690" y="632" type="line"/>
      <point x="510" y="632" type="line"/>
      <point x="510" y="-500" type="line"/>
    </contour>
    <contour>
      <point x="1219.9" y="632" type="line"/>
      <point x="1219.9" y="808" type="line"/>
      <point x="509.9" y="808" type="line"/>
      <point x="509.9" y="632" type="line"/>
    </contour>
    <contour>
      <point x="1219.9" y="280" type="line"/>
      <point x="1219.9" y="456" type="line"/>
      <point x="599.9" y="456" type="line"/>
      <point x="599.9" y="280" type="line"/>
    </contour>
  </outline>
</glyph>
<glyph name="SF380000" format="1">
  <advance width="1200"/>
  <unicode hex="255A"/>
  <outline>
    <contour>
      <point x="1219.9" y="456" type="line"/>
      <point x="409" y="456" type="line"/>
      <point x="409" y="280" type="line"/>
      <point x="1219.9" y="280" type="line"/>
    </contour>
    <contour>
      <point x="1219.9" y="808" type="line"/>
      <point x="690" y="808" type="line"/>
      <point x="690" y="632" type="line"/>
      <point x="1219.9" y="632" type="line"/>
    </contour>
    <contour>
      <point x="509.705" y="1588.34" type="line"/>
      <point x="329.705" y="1588.34" type="line"/>
      <point x="329.705" y="280.342" type="line"/>
      <point x="509.705" y="280.342" type="line"/>
    </contour>
    <contour>
      <point x="869.705" y="1588.34" type="line"/>
      <point x="689.705" y="1588.34" type="line"/>
      <point x="689.705" y="726.652" type="line"/>
      <point x="869.705" y="726.652" type="line"/>
    </contour>
  </outline>
</glyph>
<glyph name="SF280000" format="1">
  <advance width="1200"/>
  <unicode hex="255B"/>
  <outline>
    <contour>
      <point x="690" y="456.157" type="line"/>
      <point x="690" y="1588.16" type="line"/>
      <point x="510" y="1588.16" type="line"/>
      <point x="510" y="456.157" type="line"/>
    </contour>
    <contour>
      <point x="690" y="455.569" type="line"/>
      <point x="-20" y="455.569" type="line"/>
      <point x="-20" y="279.569" type="line"/>
      <point x="690" y="279.569" type="line"/>
    </contour>
    <contour>
      <point x="599.9" y="808" type="line"/>
      <point x="-20.0996" y="808" type="line"/>
      <point x="-20.0996" y="632" type="line"/>
      <point x="599.9" y="632" type="line"/>
    </contour>
  </outline>
</glyph>
<glyph name="SF260000" format="1">
  <advance width="1200"/>
  <unicode hex="255D"/>
  <outline>
    <contour>
      <point x="-19.6547" y="456" type="line"/>
      <point x="-19.6547" y="280" type="line"/>
      <point x="791.246" y="280" type="line"/>
      <point x="791.246" y="456" type="line"/>
    </contour>
    <contour>
      <point x="-19.6547" y="808" type="line"/>
      <point x="-19.6547" y="632" type="line"/>
      <point x="510.246" y="632" type="line"/>
      <point x="510.246" y="808" type="line"/>
    </contour>
    <contour>
      <point x="690.278" y="1588" type="line"/>
      <point x="690.278" y="280" type="line"/>
      <point x="870.278" y="280" type="line"/>
      <point x="870.278" y="1588" type="line"/>
    </contour>
    <contour>
      <point x="330.278" y="1588" type="line"/>
      <point x="330.278" y="726.31" type="line"/>
      <point x="510.278" y="726.31" type="line"/>
      <point x="510.278" y="1588" type="line"/>
    </contour>
  </outline>
</glyph>
<glyph name="SF190000" format="1">
  <advance width="1200"/>
  <unicode hex="2561"/>
  <outline>
    <contour>
      <point x="690" y="-500" type="line"/>
      <point x="690" y="1588" type="line"/>
      <point x="510" y="1588" type="line"/>
      <point x="510" y="-500" type="line"/>
    </contour>
    <contour>
      <point x="579.916" y="631.666" type="line"/>
      <point x="579.916" y="807.666" type="line"/>
      <point x="-20.1505" y="807.666" type="line"/>
      <point x="-20.1505" y="631.666" type="line"/>
    </contour>
    <contour>
      <point x="579.916" y="279.666" type="line"/>
      <point x="579.916" y="455.666" type="line"/>
      <point x="-20.1505" y="455.666" type="line"/>
      <point x="-20.1505" y="279.666" type="line"/>
    </contour>
  </outline>
</glyph>
<glyph name="SF200000" format="1">
  <advance width="1200"/>
  <unicode hex="2562"/>
  <outline>
    <contour>
      <point x="510" y="-500" type="line"/>
      <point x="510" y="1588" type="line"/>
      <point x="330" y="1588" type="line"/>
      <point x="330" y="-500" type="line"/>
    </contour>
    <contour>
      <point x="870" y="-500" type="line"/>
      <point x="870" y="1588" type="line"/>
      <point x="690" y="1588" type="line"/>
      <point x="690" y="-500" type="line"/>
    </contour>
    <contour>
      <point x="460.018" y="456" type="line"/>
      <point x="460.018" y="632" type="line"/>
      <point x="-19.9815" y="632" type="line"/>
      <point x="-19.9815" y="456" type="line"/>
    </contour>
  </outline>
</glyph>
<glyph name="SF410000" format="1">
  <advance width="1200"/>
  <unicode hex="2566"/>
  <outline>
    <contour>
      <point x="1219.9" y="632" type="line"/>
      <point x="1219.9" y="808" type="line"/>
      <point x="-20.0996" y="808" type="line"/>
      <point x="-20.0996" y="632" type="line"/>
    </contour>
    <contour>
      <point x="425.581" y="280" type="line"/>
      <point x="425.581" y="456" type="line"/>
      <point x="-20.0996" y="456" type="line"/>
      <point x="-20.0996" y="280" type="line"/>
    </contour>
    <contour>
      <point x="510" y="-500" type="line"/>
      <point x="510" y="456.197" type="line"/>
      <point x="330" y="456.197" type="line"/>
      <point x="330" y="-500" type="line"/>
    </contour>
    <contour>
      <point x="870" y="-500" type="line"/>
      <point x="870" y="456.197" type="line"/>
      <point x="690" y="456.197" type="line"/>
      <point x="690" y="-500" type="line"/>
    </contour>
    <contour>
      <point x="1219.9" y="280" type="line"/>
      <point x="1219.9" y="456" type="line"/>
      <point x="786.746" y="456" type="line"/>
      <point x="786.746" y="280" type="line"/>
    </contour>
  </outline>
</glyph>
<glyph name="SF400000" format="1">
  <advance width="1200"/>
  <unicode hex="2569"/>
  <outline>
    <contour>
      <point x="1219.9" y="456" type="line"/>
      <point x="-20.0996" y="456" type="line"/>
      <point x="-20.0996" y="280" type="line"/>
      <point x="1219.9" y="280" type="line"/>
    </contour>
    <contour>
      <point x="425.581" y="808" type="line"/>
      <point x="-20.0996" y="808" type="line"/>
      <point x="-20.0996" y="632" type="line"/>
      <point x="425.581" y="632" type="line"/>
    </contour>
    <contour>
      <point x="509.615" y="631.803" type="line"/>
      <point x="509.615" y="1588" type="line"/>
      <point x="329.615" y="1588" type="line"/>
      <point x="329.615" y="631.803" type="line"/>
    </contour>
    <contour>
      <point x="869.615" y="631.803" type="line"/>
      <point x="869.615" y="1588" type="line"/>
      <point x="689.615" y="1588" type="line"/>
      <point x="689.615" y="631.803" type="line"/>
    </contour>
    <contour>
      <point x="1219.9" y="808" type="line"/>
      <point x="786.746" y="808" type="line"/>
      <point x="786.746" y="632" type="line"/>
      <point x="1219.9" y="632" type="line"/>
    </contour>
  </outline>
</glyph>
<glyph name="SF440000" format="1">
  <advance width="1200"/>
  <unicode hex="256C"/>
  <outline>
    <contour>
      <point x="510" y="632" type="line"/>
      <point x="510" y="808" type="line"/>
      <point x="-20.0996" y="808" type="line"/>
      <point x="-20.0996" y="632" type="line"/>
    </contour>
    <contour>
      <point x="510" y="280" type="line"/>
      <point x="510" y="456" type="line"/>
      <point x="-20.0996" y="456" type="line"/>
      <point x="-20.0996" y="280" type="line"/>
    </contour>
    <contour>
      <point x="510" y="-500" type="line"/>
      <point x="510" y="319.937" type="line"/>
      <point x="330" y="319.937" type="line"/>
      <point x="330" y="-500" type="line"/>
    </contour>
    <contour>
      <point x="870" y="-500" type="line"/>
      <point x="870" y="320.024" type="line"/>
      <point x="690" y="320.024" type="line"/>
      <point x="690" y="-500" type="line"/>
    </contour>
    <contour>
      <point x="510" y="699.804" type="line"/>
      <point x="510" y="1588" type="line"/>
      <point x="330" y="1588" type="line"/>
      <point x="330" y="699.804" type="line"/>
    </contour>
    <contour>
      <point x="870" y="700.33" type="line"/>
      <point x="870" y="1588" type="line"/>
      <point x="690" y="1588" type="line"/>
      <point x="690" y="700.33" type="line"/>
    </contour>
    <contour>
      <point x="1219.9" y="632" type="line"/>
      <point x="1219.9" y="808" type="line"/>
      <point x="690" y="808" type="line"/>
      <point x="690" y="632" type="line"/>
    </contour>
    <contour>
      <point x="1219.9" y="280" type="line"/>
      <point x="1219.9" y="456" type="line"/>
      <point x="690" y="456" type="line"/>
      <point x="690" y="280" type="line"/>
    </contour>
  </outline>
</glyph>
<glyph name="uni256D" format="1">
  <advance width="1199.9"/>
  <unicode hex="256D"/>
  <outline>
    <contour>
      <point x="858" y="456" type="curve"/>
      <point x="1219.9" y="456" type="line"/>
      <point x="1219.9" y="632" type="line"/>
      <point x="856" y="632" type="line"/>
      <point x="665" y="632"/>
      <point x="510" y="477"/>
      <point x="510" y="286" type="curve"/>
      <point x="510" y="-500" type="line"/>
      <point x="690" y="-500" type="line"/>
      <point x="690" y="288" type="line"/>
      <point x="690" y="382"/>
      <point x="766" y="456"/>
    </contour>
  </outline>
</glyph>
<glyph name="uni256E" format="1">
  <advance width="1199.9"/>
  <unicode hex="256E"/>
  <outline>
    <contour>
      <point x="341.507" y="456" type="line"/>
      <point x="433.507" y="456"/>
      <point x="509.507" y="382"/>
      <point x="509.507" y="288" type="curve"/>
      <point x="509.507" y="-500" type="line"/>
      <point x="689.507" y="-500" type="line"/>
      <point x="689.507" y="286" type="line"/>
      <point x="689.507" y="477"/>
      <point x="534.507" y="632"/>
      <point x="343.507" y="632" type="curve"/>
      <point x="-20.3933" y="632" type="line"/>
      <point x="-20.3933" y="456" type="line"/>
    </contour>
  </outline>
</glyph>
<glyph name="uni256F" format="1">
  <advance width="1199.9"/>
  <unicode hex="256F"/>
  <outline>
    <contour>
      <point x="341.507" y="632.197" type="curve"/>
      <point x="-20.3933" y="632.197" type="line"/>
      <point x="-20.3933" y="456.197" type="line"/>
      <point x="343.507" y="456.197" type="line"/>
      <point x="534.507" y="456.197"/>
      <point x="689.507" y="611.197"/>
      <point x="689.507" y="802.197" type="curve"/>
      <point x="689.507" y="1588.2" type="line"/>
      <point x="509.507" y="1588.2" type="line"/>
      <point x="509.507" y="800.197" type="line"/>
      <point x="509.507" y="706.197"/>
      <point x="433.507" y="632.197"/>
    </contour>
  </outline>
</glyph>
<glyph name="uni2570" format="1">
  <advance width="1199.9"/>
  <unicode hex="2570"/>
  <outline>
    <contour>
      <point x="858" y="632.394" type="line"/>
      <point x="766" y="632.394"/>
      <point x="690" y="706.394"/>
      <point x="690" y="800.394" type="curve"/>
      <point x="690" y="1588.39" type="line"/>
      <point x="510" y="1588.39" type="line"/>
      <point x="510" y="802.394" type="line"/>
      <point x="510" y="611.394"/>
      <point x="665" y="456.394"/>
      <point x="856" y="456.394" type="curve"/>
      <point x="1219.9" y="456.394" type="line"/>
      <point x="1219.9" y="632.394" type="line"/>
    </contour>
  </outline>
</glyph>
<glyph name="uni2571" format="1">
  <advance width="1200"/>
  <unicode hex="2571"/>
  <outline>
    <contour>
      <point x="1097.28" y="1568" type="line"/>
      <point x="-102.551" y="-480" type="line"/>
      <point x="102.724" y="-480" type="line"/>
      <point x="1303.3" y="1568" type="line"/>
    </contour>
  </outline>
</glyph>
<glyph name="boxHeavyLeft" format="1">
  <advance width="1200"/>
  <unicode hex="2578"/>
  <outline>
    <contour>
      <point x="706" y="317" type="line"/>
      <point x="706" y="741" type="line"/>
      <point x="-106" y="741" type="line"/>
      <point x="-106" y="317" type="line"/>
    </contour>
  </outline>
</glyph>
<glyph name="uni2578" format="1">
  <advance width="1200"/>
  <unicode hex="2578"/>
  <outline>
    <contour>
      <point x="599.9" y="368" type="line"/>
      <point x="599.9" y="720" type="line"/>
      <point x="-20.0996" y="720" type="line"/>
      <point x="-20.0996" y="368" type="line"/>
    </contour>
  </outline>
</glyph>
<glyph name="block" format="1">
  <advance width="1200"/>
  <unicode hex="2588"/>
  <outline>
    <contour>
      <point x="-20" y="1588" type="line"/>
      <point x="1220" y="1588" type="line"/>
      <point x="1220" y="-500" type="line"/>
      <point x="-20" y="-500" type="line"/>
    </contour>
  </outline>
</glyph>
<glyph name="ltshade" format="1">
  <advance width="1200"/>
  <unicode hex="2591"/>
  <outline>
    <contour>
      <point x="1050" y="1568" type="line"/>
      <point x="1200" y="1568" type="line"/>
      <point x="1200" y="1423" type="line"/>
      <point x="1050" y="1423" type="line"/>
    </contour>
    <contour>
      <point x="750" y="1421" type="line"/>
      <point x="900" y="1421" type="line"/>
      <point x="900" y="1276" type="line"/>
      <point x="750" y="1276" type="line"/>
    </contour>
    <contour>
      <point x="450" y="1568" type="line"/>
      <point x="600" y="1568" type="line"/>
      <point x="600" y="1423" type="line"/>
      <point x="450" y="1423" type="line"/>
    </contour>
    <contour>
      <point x="150" y="1421" type="line"/>
      <point x="300" y="1421" type="line"/>
      <point x="300" y="1276" type="line"/>
      <point x="150" y="1276" type="line"/>
    </contour>
    <contour>
      <point x="1050" y="1276" type="line"/>
      <point x="1200" y="1276" type="line"/>
      <point x="1200" y="1131" type="line"/>
      <point x="1050" y="1131" type="line"/>
    </contour>
    <contour>
      <point x="750" y="1129" type="line"/>
      <point x="900" y="1129" type="line"/>
      <point x="900" y="984" type="line"/>
      <point x="750" y="984" type="line"/>
    </contour>
    <contour>
      <point x="450" y="1276" type="line"/>
      <point x="600" y="1276" type="line"/>
      <point x="600" y="1131" type="line"/>
      <point x="450" y="1131" type="line"/>
    </contour>
    <contour>
      <point x="150" y="1129" type="line"/>
      <point x="300" y="1129" type="line"/>
      <point x="300" y="984" type="line"/>
      <point x="150" y="984" type="line"/>
    </contour>
    <contour>
      <point x="1050" y="984" type="line"/>
      <point x="1200" y="984" type="line"/>
      <point x="1200" y="839" type="line"/>
      <point x="1050" y="839" type="line"/>
    </contour>
    <contour>
      <point x="750" y="837" type="line"/>
      <point x="900" y="837" type="line"/>
      <point x="900" y="692" type="line"/>
      <point x="750" y="692" type="line"/>
    </contour>
    <contour>
      <point x="450" y="984" type="line"/>
      <point x="600" y="984" type="line"/>
      <point x="600" y="839" type="line"/>
      <point x="450" y="839" type="line"/>
    </contour>
    <contour>
      <point x="150" y="837" type="line"/>
      <point x="300" y="837" type="line"/>
      <point x="300" y="692" type="line"/>
      <point x="150" y="692" type="line"/>
    </contour>
    <contour>
      <point x="1050" y="692" type="line"/>
      <point x="1200" y="692" type="line"/>
      <point x="1200" y="546" type="line"/>
      <point x="1050" y="546" type="line"/>
    </contour>
    <contour>
      <point x="750" y="544" type="line"/>
      <point x="900" y="544" type="line"/>
      <point x="900" y="399" type="line"/>
      <point x="750" y="399" type="line"/>
    </contour>
    <contour>
      <point x="450" y="692" type="line"/>
      <point x="600" y="692" type="line"/>
      <point x="600" y="546" type="line"/>
      <point x="450" y="546" type="line"/>
    </contour>
    <contour>
      <point x="150" y="544" type="line"/>
      <point x="300" y="544" type="line"/>
      <point x="300" y="399" type="line"/>
      <point x="150" y="399" type="line"/>
    </contour>
    <contour>
      <point x="1050" y="-187.31" type="line"/>
      <point x="1200" y="-187.31" type="line"/>
      <point x="1200" y="-333.31" type="line"/>
      <point x="1050" y="-333.31" type="line"/>
    </contour>
    <contour>
      <point x="750" y="-335.31" type="line"/>
      <point x="900" y="-335.31" type="line"/>
      <point x="900" y="-480.31" type="line"/>
      <point x="750" y="-480.31" type="line"/>
    </contour>
    <contour>
      <point x="450" y="-187.31" type="line"/>
      <point x="600" y="-187.31" type="line"/>
      <point x="600" y="-333.31" type="line"/>
      <point x="450" y="-333.31" type="line"/>
    </contour>
    <contour>
      <point x="150" y="-335.31" type="line"/>
      <point x="300" y="-335.31" type="line"/>
      <point x="300" y="-480.31" type="line"/>
      <point x="150" y="-480.31" type="line"/>
    </contour>
    <contour>
      <point x="1050" y="398.69" type="line"/>
      <point x="1200" y="398.69" type="line"/>
      <point x="1200" y="252.69" type="line"/>
      <point x="1050" y="252.69" type="line"/>
    </contour>
    <contour>
      <point x="750" y="250.69" type="line"/>
      <point x="900" y="250.69" type="line"/>
      <point x="900" y="105.69" type="line"/>
      <point x="750" y="105.69" type="line"/>
    </contour>
    <contour>
      <point x="450" y="398.69" type="line"/>
      <point x="600" y="398.69" type="line"/>
      <point x="600" y="252.69" type="line"/>
      <point x="450" y="252.69" type="line"/>
    </contour>
    <contour>
      <point x="150" y="250.69" type="line"/>
      <point x="300" y="250.69" type="line"/>
      <point x="300" y="105.69" type="line"/>
      <point x="150" y="105.69" type="line"/>
    </contour>
    <contour>
      <point x="1050" y="105.69" type="line"/>
      <point x="1200" y="105.69" type="line"/>
      <point x="1200" y="-40.3099" type="line"/>
      <point x="1050" y="-40.3099" type="line"/>
    </contour>
    <contour>
      <point x="750" y="-42.3099" type="line"/>
      <point x="900" y="-42.3099" type="line"/>
      <point x="900" y="-187.31" type="line"/>
      <point x="750" y="-187.31" type="line"/>
    </contour>
    <contour>
      <point x="450" y="105.69" type="line"/>
      <point x="600" y="105.69" type="line"/>
      <point x="600" y="-40.3099" type="line"/>
      <point x="450" y="-40.3099" type="line"/>
    </contour>
    <contour>
      <point x="150" y="-42.3099" type="line"/>
      <point x="300" y="-42.3099" type="line"/>
      <point x="300" y="-187.31" type="line"/>
      <point x="150" y="-187.31" type="line"/>
    </contour>
  </outline>
</glyph>
<glyph name="shade" format="1">
  <advance width="1200"/>
  <unicode hex="2592"/>
  <outline>
    <contour>
      <point x="1050" y="1568" type="line"/>
      <point x="1200" y="1568" type="line"/>
      <point x="1200" y="1423" type="line"/>
      <point x="1050" y="1423" type="line"/>
    </contour>
    <contour>
      <point x="899.942" y="1421" type="line"/>
      <point x="1049.94" y="1421" type="line"/>
      <point x="1049.94" y="1276" type="line"/>
      <point x="899.942" y="1276" type="line"/>
    </contour>
    <contour>
      <point x="749.942" y="1568" type="line"/>
      <point x="899.942" y="1568" type="line"/>
      <point x="899.942" y="1423" type="line"/>
      <point x="749.942" y="1423" type="line"/>
    </contour>
    <contour>
      <point x="599.884" y="1421" type="line"/>
      <point x="749.884" y="1421" type="line"/>
      <point x="749.884" y="1276" type="line"/>
      <point x="599.884" y="1276" type="line"/>
    </contour>
    <contour>
      <point x="1050" y="1276" type="line"/>
      <point x="1200" y="1276" type="line"/>
      <point x="1200" y="1131" type="line"/>
      <point x="1050" y="1131" type="line"/>
    </contour>
    <contour>
      <point x="899.942" y="1129" type="line"/>
      <point x="1049.94" y="1129" type="line"/>
      <point x="1049.94" y="984" type="line"/>
      <point x="899.942" y="984" type="line"/>
    </contour>
    <contour>
      <point x="749.942" y="1276" type="line"/>
      <point x="899.942" y="1276" type="line"/>
      <point x="899.942" y="1131" type="line"/>
      <point x="749.942" y="1131" type="line"/>
    </contour>
    <contour>
      <point x="599.884" y="1129" type="line"/>
      <point x="749.884" y="1129" type="line"/>
      <point x="749.884" y="984" type="line"/>
      <point x="599.884" y="984" type="line"/>
    </contour>
    <contour>
      <point x="1050" y="984" type="line"/>
      <point x="1200" y="984" type="line"/>
      <point x="1200" y="839" type="line"/>
      <point x="1050" y="839" type="line"/>
    </contour>
    <contour>
      <point x="899.942" y="837" type="line"/>
      <point x="1049.94" y="837" type="line"/>
      <point x="1049.94" y="692" type="line"/>
      <point x="899.942" y="692" type="line"/>
    </contour>
    <contour>
      <point x="749.942" y="984" type="line"/>
      <point x="899.942" y="984" type="line"/>
      <point x="899.942" y="839" type="line"/>
      <point x="749.942" y="839" type="line"/>
    </contour>
    <contour>
      <point x="599.884" y="837" type="line"/>
      <point x="749.884" y="837" type="line"/>
      <point x="749.884" y="692" type="line"/>
      <point x="599.884" y="692" type="line"/>
    </contour>
    <contour>
      <point x="1050" y="692" type="line"/>
      <point x="1200" y="692" type="line"/>
      <point x="1200" y="546" type="line"/>
      <point x="1050" y="546" type="line"/>
    </contour>
    <contour>
      <point x="899.942" y="544" type="line"/>
      <point x="1049.94" y="544" type="line"/>
      <point x="1049.94" y="399" type="line"/>
      <point x="899.942" y="399" type="line"/>
    </contour>
    <contour>
      <point x="749.942" y="692" type="line"/>
      <point x="899.942" y="692" type="line"/>
      <point x="899.942" y="546" type="line"/>
      <point x="749.942" y="546" type="line"/>
    </contour>
    <contour>
      <point x="599.884" y="544" type="line"/>
      <point x="749.884" y="544" type="line"/>
      <point x="749.884" y="399" type="line"/>
      <point x="599.884" y="399" type="line"/>
    </contour>
    <contour>
      <point x="1050" y="-187.31" type="line"/>
      <point x="1200" y="-187.31" type="line"/>
      <point x="1200" y="-333.31" type="line"/>
      <point x="1050" y="-333.31" type="line"/>
    </contour>
    <contour>
      <point x="899.942" y="-335.31" type="line"/>
      <point x="1049.94" y="-335.31" type="line"/>
      <point x="1049.94" y="-480.31" type="line"/>
      <point x="899.942" y="-480.31" type="line"/>
    </contour>
    <contour>
      <point x="749.942" y="-187.31" type="line"/>
      <point x="899.942" y="-187.31" type="line"/>
      <point x="899.942" y="-333.31" type="line"/>
      <point x="749.942" y="-333.31" type="line"/>
    </contour>
    <contour>
      <point x="599.884" y="-335.31" type="line"/>
      <point x="749.884" y="-335.31" type="line"/>
      <point x="749.884" y="-480.31" type="line"/>
      <point x="599.884" y="-480.31" type="line"/>
    </contour>
    <contour>
      <point x="1050" y="398.69" type="line"/>
      <point x="1200" y="398.69" type="line"/>
      <point x="1200" y="252.69" type="line"/>
      <point x="1050" y="252.69" type="line"/>
    </contour>
    <contour>
      <point x="899.942" y="250.69" type="line"/>
      <point x="1049.94" y="250.69" type="line"/>
      <point x="1049.94" y="105.69" type="line"/>
      <point x="899.942" y="105.69" type="line"/>
    </contour>
    <contour>
      <point x="749.942" y="398.69" type="line"/>
      <point x="899.942" y="398.69" type="line"/>
      <point x="899.942" y="252.69" type="line"/>
      <point x="749.942" y="252.69" type="line"/>
    </contour>
    <contour>
      <point x="599.884" y="250.69" type="line"/>
      <point x="749.884" y="250.69" type="line"/>
      <point x="749.884" y="105.69" type="line"/>
      <point x="599.884" y="105.69" type="line"/>
    </contour>
    <contour>
      <point x="1050" y="105.69" type="line"/>
      <point x="1200" y="105.69" type="line"/>
      <point x="1200" y="-40.3099" type="line"/>
      <point x="1050" y="-40.3099" type="line"/>
    </contour>
    <contour>
      <point x="899.942" y="-42.3099" type="line"/>
      <point x="1049.94" y="-42.3099" type="line"/>
      <point x="1049.94" y="-187.31" type="line"/>
      <point x="899.942" y="-187.31" type="line"/>
    </contour>
    <contour>
      <point x="749.942" y="105.69" type="line"/>
      <point x="899.942" y="105.69" type="line"/>
      <point x="899.942" y="-40.3099" type="line"/>
      <point x="749.942" y="-40.3099" type="line"/>
    </contour>
    <contour>
      <point x="599.884" y="-42.3099" type="line"/>
      <point x="749.884" y="-42.3099" type="line"/>
      <point x="749.884" y="-187.31" type="line"/>
      <point x="599.884" y="-187.31" type="line"/>
    </contour>
    <contour>
      <point x="449.878" y="1568" type="line"/>
      <point x="599.878" y="1568" type="line"/>
      <point x="599.878" y="1423" type="line"/>
      <point x="449.878" y="1423" type="line"/>
    </contour>
    <contour>
      <point x="299.82" y="1421" type="line"/>
      <point x="449.82" y="1421" type="line"/>
      <point x="449.82" y="1276" type="line"/>
      <point x="299.82" y="1276" type="line"/>
    </contour>
    <contour>
      <point x="449.878" y="1276" type="line"/>
      <point x="599.878" y="1276" type="line"/>
      <point x="599.878" y="1131" type="line"/>
      <point x="449.878" y="1131" type="line"/>
    </contour>
    <contour>
      <point x="299.82" y="1129" type="line"/>
      <point x="449.82" y="1129" type="line"/>
      <point x="449.82" y="984" type="line"/>
      <point x="299.82" y="984" type="line"/>
    </contour>
    <contour>
      <point x="449.878" y="984" type="line"/>
      <point x="599.878" y="984" type="line"/>
      <point x="599.878" y="839" type="line"/>
      <point x="449.878" y="839" type="line"/>
    </contour>
    <contour>
      <point x="299.82" y="837" type="line"/>
      <point x="449.82" y="837" type="line"/>
      <point x="449.82" y="692" type="line"/>
      <point x="299.82" y="692" type="line"/>
    </contour>
    <contour>
      <point x="449.878" y="692" type="line"/>
      <point x="599.878" y="692" type="line"/>
      <point x="599.878" y="546" type="line"/>
      <point x="449.878" y="546" type="line"/>
    </contour>
    <contour>
      <point x="299.82" y="544" type="line"/>
      <point x="449.82" y="544" type="line"/>
      <point x="449.82" y="399" type="line"/>
      <point x="299.82" y="399" type="line"/>
    </contour>
    <contour>
      <point x="449.878" y="-187.31" type="line"/>
      <point x="599.878" y="-187.31" type="line"/>
      <point x="599.878" y="-333.31" type="line"/>
      <point x="449.878" y="-333.31" type="line"/>
    </contour>
    <contour>
      <point x="299.82" y="-335.31" type="line"/>
      <point x="449.82" y="-335.31" type="line"/>
      <point x="449.82" y="-480.31" type="line"/>
      <point x="299.82" y="-480.31" type="line"/>
    </contour>
    <contour>
      <point x="449.878" y="398.69" type="line"/>
      <point x="599.878" y="398.69" type="line"/>
      <point x="599.878" y="252.69" type="line"/>
      <point x="449.878" y="252.69" type="line"/>
    </contour>
    <contour>
      <point x="299.82" y="250.69" type="line"/>
      <point x="449.82" y="250.69" type="line"/>
      <point x="449.82" y="105.69" type="line"/>
      <point x="299.82" y="105.69" type="line"/>
    </contour>
    <contour>
      <point x="449.878" y="105.69" type="line"/>
      <point x="599.878" y="105.69" type="line"/>
      <point x="599.878" y="-40.3099" type="line"/>
      <point x="449.878" y="-40.3099" type="line"/>
    </contour>
    <contour>
      <point x="299.82" y="-42.3099" type="line"/>
      <point x="449.82" y="-42.3099" type="line"/>
      <point x="449.82" y="-187.31" type="line"/>
      <point x="299.82" y="-187.31" type="line"/>
    </contour>
    <contour>
      <point x="149.878" y="1568" type="line"/>
      <point x="299.878" y="1568" type="line"/>
      <point x="299.878" y="1423" type="line"/>
      <point x="149.878" y="1423" type="line"/>
    </contour>
    <contour>
      <point x="-0.1805" y="1421" type="line"/>
      <point x="149.819" y="1421" type="line"/>
      <point x="149.819" y="1276" type="line"/>
      <point x="-0.1805" y="1276" type="line"/>
    </contour>
    <contour>
      <point x="149.878" y="1276" type="line"/>
      <point x="299.878" y="1276" type="line"/>
      <point x="299.878" y="1131" type="line"/>
      <point x="149.878" y="1131" type="line"/>
    </contour>
    <contour>
      <point x="-0.1805" y="1129" type="line"/>
      <point x="149.819" y="1129" type="line"/>
      <point x="149.819" y="984" type="line"/>
      <point x="-0.1805" y="984" type="line"/>
    </contour>
    <contour>
      <point x="149.878" y="984" type="line"/>
      <point x="299.878" y="984" type="line"/>
      <point x="299.878" y="839" type="line"/>
      <point x="149.878" y="839" type="line"/>
    </contour>
    <contour>
      <point x="-0.1805" y="837" type="line"/>
      <point x="149.819" y="837" type="line"/>
      <point x="149.819" y="692" type="line"/>
      <point x="-0.1805" y="692" type="line"/>
    </contour>
    <contour>
      <point x="149.878" y="692" type="line"/>
      <point x="299.878" y="692" type="line"/>
      <point x="299.878" y="546" type="line"/>
      <point x="149.878" y="546" type="line"/>
    </contour>
    <contour>
      <point x="-0.1805" y="544" type="line"/>
      <point x="149.819" y="544" type="line"/>
      <point x="149.819" y="399" type="line"/>
      <point x="-0.1805" y="399" type="line"/>
    </contour>
    <contour>
      <point x="149.878" y="-187.31" type="line"/>
      <point x="299.878" y="-187.31" type="line"/>
      <point x="299.878" y="-333.31" type="line"/>
      <point x="149.878" y="-333.31" type="line"/>
    </contour>
    <contour>
      <point x="-0.1805" y="-335.31" type="line"/>
      <point x="149.819" y="-335.31" type="line"/>
      <point x="149.819" y="-480.31" type="line"/>
      <point x="-0.1805" y="-480.31" type="line"/>
    </contour>
    <contour>
      <point x="149.878" y="398.69" type="line"/>
      <point x="299.878" y="398.69" type="line"/>
      <point x="299.878" y="252.69" type="line"/>
      <point x="149.878" y="252.69" type="line"/>
    </contour>
    <contour>
      <point x="-0.1805" y="250.69" type="line"/>
      <point x="149.819" y="250.69" type="line"/>
      <point x="149.819" y="105.69" type="line"/>
      <point x="-0.1805" y="105.69" type="line"/>
    </contour>
    <contour>
      <point x="149.878" y="105.69" type="line"/>
      <point x="299.878" y="105.69" type="line"/>
      <point x="299.878" y="-40.3099" type="line"/>
      <point x="149.878" y="-40.3099" type="line"/>
    </contour>
    <contour>
      <point x="-0.1805" y="-42.3099" type="line"/>
      <point x="149.819" y="-42.3099" type="line"/>
      <point x="149.819" y="-187.31" type="line"/>
      <point x="-0.1805" y="-187.31" type="line"/>
    </contour>
  </outline>
</glyph>
<glyph name="dkshade" format="1">
  <advance width="1200"/>
  <unicode hex="2593"/>
  <outline>
    <contour>
      <point x="450" y="398.69" type="line"/>
      <point x="600" y="398.69" type="line"/>
      <point x="600" y="252.69" type="line"/>
      <point x="450" y="252.69" type="line"/>
    </contour>
    <contour>
      <point x="450" y="-333.31" type="line"/>
      <point x="450" y="-187.31" type="line"/>
      <point x="600" y="-187.31" type="line"/>
      <point x="600" y="-333.31" type="line"/>
    </contour>
    <contour>
      <point x="450" y="105.69" type="line"/>
      <point x="600" y="105.69" type="line"/>
      <point x="600" y="-40.3099" type="line"/>
      <point x="450" y="-40.3099" type="line"/>
    </contour>
    <contour>
      <point x="600" y="546" type="line"/>
      <point x="450" y="546" type="line"/>
      <point x="450" y="692" type="line"/>
      <point x="600" y="692" type="line"/>
    </contour>
    <contour>
      <point x="600" y="1131" type="line"/>
      <point x="450" y="1131" type="line"/>
      <point x="450" y="1276" type="line"/>
      <point x="600" y="1276" type="line"/>
    </contour>
    <contour>
      <point x="450" y="984" type="line"/>
      <point x="600" y="984" type="line"/>
      <point x="600" y="839" type="line"/>
      <point x="450" y="839" type="line"/>
    </contour>
    <contour>
      <point x="300" y="837" type="line"/>
      <point x="300" y="692" type="line"/>
      <point x="150" y="692" type="line"/>
      <point x="150" y="837" type="line"/>
    </contour>
    <contour>
      <point x="150" y="1129" type="line"/>
      <point x="300" y="1129" type="line"/>
      <point x="300" y="984" type="line"/>
      <point x="150" y="984" type="line"/>
    </contour>
    <contour>
      <point x="750" y="105.69" type="line"/>
      <point x="750" y="250.69" type="line"/>
      <point x="900" y="250.69" type="line"/>
      <point x="900" y="105.69" type="line"/>
    </contour>
    <contour>
      <point x="150" y="1421" type="line"/>
      <point x="300" y="1421" type="line"/>
      <point x="300" y="1276" type="line"/>
      <point x="150" y="1276" type="line"/>
    </contour>
    <contour>
      <point x="150" y="250.69" type="line"/>
      <point x="300" y="250.69" type="line"/>
      <point x="300" y="105.69" type="line"/>
      <point x="150" y="105.69" type="line"/>
    </contour>
    <contour>
      <point x="750" y="837" type="line"/>
      <point x="900" y="837" type="line"/>
      <point x="900" y="692" type="line"/>
      <point x="750" y="692" type="line"/>
    </contour>
    <contour>
      <point x="300" y="544" type="line"/>
      <point x="300" y="399" type="line"/>
      <point x="150" y="399" type="line"/>
      <point x="150" y="544" type="line"/>
    </contour>
    <contour>
      <point x="900" y="-187.31" type="line"/>
      <point x="750" y="-187.31" type="line"/>
      <point x="750" y="-42.3099" type="line"/>
      <point x="900" y="-42.3099" type="line"/>
    </contour>
    <contour>
      <point x="300" y="-187.31" type="line"/>
      <point x="150" y="-187.31" type="line"/>
      <point x="150" y="-42.3099" type="line"/>
      <point x="300" y="-42.3099" type="line"/>
    </contour>
    <contour>
      <point x="750" y="544" type="line"/>
      <point x="900" y="544" type="line"/>
      <point x="900" y="399" type="line"/>
      <point x="750" y="399" type="line"/>
    </contour>
    <contour>
      <point x="750" y="984" type="line"/>
      <point x="750" y="1129" type="line"/>
      <point x="900" y="1129" type="line"/>
      <point x="900" y="984" type="line"/>
    </contour>
    <contour>
      <point x="900" y="1421" type="line"/>
      <point x="900" y="1276" type="line"/>
      <point x="750" y="1276" type="line"/>
      <point x="750" y="1421" type="line"/>
    </contour>
    <contour>
      <point x="750" y="-485" type="line"/>
      <point x="750" y="-335.31" type="line"/>
      <point x="900" y="-335.31" type="line"/>
      <point x="900" y="-486.946" type="line"/>
      <point x="1205" y="-486.946" type="line"/>
      <point x="1205" y="-335.256" type="line"/>
      <point x="1050" y="-335.256" type="line"/>
      <point x="1050" y="-189.256" type="line"/>
      <point x="1205" y="-189.256" type="line"/>
      <point x="1205" y="-42.256" type="line"/>
      <point x="1050" y="-42.256" type="line"/>
      <point x="1050" y="103.744" type="line"/>
      <point x="1205" y="103.744" type="line"/>
      <point x="1205" y="250.744" type="line"/>
      <point x="1050" y="250.744" type="line"/>
      <point x="1050" y="396.744" type="line"/>
      <point x="1205" y="396.744" type="line"/>
      <point x="1205" y="548.462" type="line"/>
      <point x="1050" y="548.462" type="line"/>
      <point x="1050" y="694.462" type="line"/>
      <point x="1205" y="694.462" type="line"/>
      <point x="1205" y="841.462" type="line"/>
      <point x="1205" y="839" type="line"/>
      <point x="1050" y="839" type="line"/>
      <point x="1050" y="984" type="line"/>
      <point x="1208" y="984" type="line"/>
      <point x="1204.55" y="984" type="line"/>
      <point x="1205" y="1131" type="line"/>
      <point x="1046.55" y="1131" type="line"/>
      <point x="1046.55" y="1276" type="line"/>
      <point x="1205" y="1276" type="line"/>
      <point x="1205" y="1423" type="line"/>
      <point x="1050" y="1423" type="line"/>
      <point x="1050" y="1573" type="line"/>
      <point x="600" y="1573" type="line"/>
      <point x="600" y="1423" type="line"/>
      <point x="450" y="1423" type="line"/>
      <point x="450" y="1573" type="line"/>
      <point x="-5" y="1573" type="line"/>
      <point x="-5" y="-485" type="line"/>
      <point x="150" y="-485" type="line"/>
      <point x="150" y="-335.31" type="line"/>
      <point x="300" y="-335.31" type="line"/>
      <point x="300" y="-485" type="line"/>
      <point x="296.281" y="-483.054" type="line"/>
      <point x="746.281" y="-483.054" type="line"/>
    </contour>
  </outline>
</glyph>
<glyph name="uni259B" format="1">
  <advance width="1200"/>
  <unicode hex="259B"/>
  <outline>
    <contour>
      <point x="-20" y="1588" type="line"/>
      <point x="600" y="1588" type="line"/>
      <point x="600" y="-500" type="line"/>
      <point x="-20" y="-500" type="line"/>
    </contour>
    <contour>
      <point x="600.431" y="1588" type="line"/>
      <point x="1220.43" y="1588" type="line"/>
      <point x="1220.43" y="544" type="line"/>
      <point x="600.431" y="544" type="line"/>
    </contour>
  </outline>
</glyph>
<glyph name="uni25A2" format="1">
  <advance width="1200" height="1568"/>
  <unicode hex="25A2"/>
  <outline>
    <contour>
      <point x="75" y="813" type="line" smooth="yes"/>
      <point x="75" y="966.6"/>
      <point x="177.4" y="1069"/>
      <point x="331" y="1069" type="curve" smooth="yes"/>
      <point x="869" y="1069" type="line" smooth="yes"/>
      <point x="1022.6" y="1069"/>
      <point x="1125" y="966.6"/>
      <point x="1125" y="813" type="curve" smooth="yes"/>
      <point x="1125" y="275" type="line" smooth="yes"/>
      <point x="1125" y="121.4"/>
      <point x="1022.6" y="19"/>
      <point x="869" y="19" type="curve" smooth="yes"/>
      <point x="331" y="19" type="line" smooth="yes"/>
      <point x="177.4" y="19"/>
      <point x="75" y="121.4"/>
      <point x="75" y="275" type="curve" smooth="yes"/>
    </contour>
    <contour>
      <point x="330" y="919" type="line" smooth="yes"/>
      <point x="267" y="919"/>
      <point x="225" y="877"/>
      <point x="225" y="814" type="curve" smooth="yes"/>
      <point x="225" y="274" type="line" smooth="yes"/>
      <point x="225" y="211"/>
      <point x="267" y="169"/>
      <point x="330" y="169" type="curve" smooth="yes"/>
      <point x="870" y="169" type="line" smooth="yes"/>
      <point x="933" y="169"/>
      <point x="975" y="211"/>
      <point x="975" y="274" type="curve" smooth="yes"/>
      <point x="975" y="814" type="line" smooth="yes"/>
      <point x="975" y="877"/>
      <point x="933" y="919"/>
      <point x="870" y="919" type="curve" smooth="yes"/>
    </contour>
  </outline>
</glyph>
<glyph name="uni25A3" format="1">
  <advance width="1200" height="1568"/>
  <unicode hex="25A3"/>
  <outline>
    <contour>
      <point x="225" y="919" type="line"/>
      <point x="225" y="169" type="line"/>
      <point x="975" y="169" type="line"/>
      <point x="975" y="919" type="line"/>
    </contour>
    <contour>
      <point x="75" y="1069" type="line"/>
      <point x="1125" y="1069" type="line"/>
      <point x="1125" y="19" type="line"/>
      <point x="75" y="19" type="line"/>
    </contour>
    <contour>
      <point x="375" y="769" type="line"/>
      <point x="825" y="769" type="line"/>
      <point x="825" y="319" type="line"/>
      <point x="375" y="319" type="line"/>
    </contour>
  </outline>
</glyph>
<glyph name="H18543" format="1">
  <advance width="1200" height="1568"/>
  <unicode hex="25AA"/>
  <outline>
    <contour>
      <point x="300" y="844" type="line"/>
      <point x="900" y="844" type="line"/>
      <point x="900" y="244" type="line"/>
      <point x="300" y="244" type="line"/>
    </contour>
  </outline>
</glyph>
<glyph name="uni25B0" format="1">
  <advance width="1200" height="1568"/>
  <unicode hex="25B0"/>
  <outline>
    <contour>
      <point x="170" y="844" type="line"/>
      <point x="1200" y="844" type="line"/>
      <point x="1030" y="244" type="line"/>
      <point x="0" y="244" type="line"/>
    </contour>
  </outline>
</glyph>
<glyph name="uni25B1" format="1">
  <advance width="1200" height="1568"/>
  <unicode hex="25B1"/>
  <outline>
    <contour>
      <point x="170" y="844" type="line"/>
      <point x="1200" y="844" type="line"/>
      <point x="1030" y="244" type="line"/>
      <point x="0" y="244" type="line"/>
    </contour>
    <contour>
      <point x="283.405" y="694" type="line"/>
      <point x="198.405" y="394" type="line"/>
      <point x="916.595" y="394" type="line"/>
      <point x="1001.6" y="694" type="line"/>
    </contour>
  </outline>
</glyph>
<glyph name="triagup" format="1">
  <advance width="1200" height="1568"/>
  <unicode hex="25B2"/>
  <outline>
    <contour>
      <point x="600" y="1084" type="line"/>
      <point x="1200" y="64" type="line"/>
      <point x="0" y="64" type="line"/>
    </contour>
  </outline>
</glyph>
<glyph name="uni25B4" format="1">
  <advance width="1200" height="1568"/>
  <unicode hex="25B4"/>
  <outline>
    <contour>
      <point x="600" y="936.077" type="line"/>
      <point x="1068.87" y="139" type="line"/>
      <point x="131.131" y="139" type="line"/>
    </contour>
  </outline>
</glyph>
<glyph name="uni25B7" format="1">
  <advance width="1200" height="1568"/>
  <unicode hex="25B7"/>
  <outline>
    <contour>
      <point x="1140" y="544" type="line"/>
      <point x="120" y="-56" type="line"/>
      <point x="120" y="1144" type="line"/>
    </contour>
    <contour>
      <point x="844.154" y="544" type="line"/>
      <point x="270" y="881.738" type="line"/>
      <point x="270" y="206.262" type="line"/>
    </contour>
  </outline>
</glyph>
<glyph name="uni25B9" format="1">
  <advance width="1200" height="1568"/>
  <unicode hex="25B9"/>
  <outline>
    <contour>
      <point x="992.077" y="544" type="line"/>
      <point x="195" y="75.1313" type="line"/>
      <point x="195" y="1012.87" type="line"/>
    </contour>
    <contour>
      <point x="696.231" y="544" type="line"/>
      <point x="345" y="750.606" type="line"/>
      <point x="345" y="337.394" type="line"/>
    </contour>
  </outline>
</glyph>
<glyph name="uni25BD" format="1">
  <advance width="1200" height="1568"/>
  <unicode hex="25BD"/>
  <outline>
    <contour>
      <point x="600" y="4" type="line"/>
      <point x="0" y="1024" type="line"/>
      <point x="1200" y="1024" type="line"/>
    </contour>
    <contour>
      <point x="600" y="299.846" type="line"/>
      <point x="937.738" y="874" type="line"/>
      <point x="262.262" y="874" type="line"/>
    </contour>
  </outline>
</glyph>
<glyph name="uni25BF" format="1">
  <advance width="1200" height="1568"/>
  <unicode hex="25BF"/>
  <outline>
    <contour>
      <point x="600" y="151.923" type="line"/>
      <point x="131.131" y="949" type="line"/>
      <point x="1068.87" y="949" type="line"/>
    </contour>
    <contour>
      <point x="600" y="447.769" type="line"/>
      <point x="806.606" y="799" type="line"/>
      <point x="393.394" y="799" type="line"/>
    </contour>
  </outline>
</glyph>
<glyph name="uni25C0" format="1">
  <advance width="1200" height="1568"/>
  <unicode hex="25C0"/>
  <outline>
    <contour>
      <point x="60" y="544" type="line"/>
      <point x="1080" y="1144" type="line"/>
      <point x="1080" y="-56" type="line"/>
    </contour>
  </outline>
</glyph>
<glyph name="uni25C2" format="1">
  <advance width="1200" height="1568"/>
  <unicode hex="25C2"/>
  <outline>
    <contour>
      <point x="207.923" y="544" type="line"/>
      <point x="1005" y="1012.87" type="line"/>
      <point x="1005" y="75.1313" type="line"/>
    </contour>
  </outline>
</glyph>
<glyph name="triaglf" format="1">
  <advance width="1200" height="1568"/>
  <unicode hex="25C4"/>
  <outline>
    <contour>
      <point x="60" y="544" type="line"/>
      <point x="1080" y="904" type="line"/>
      <point x="1080" y="184" type="line"/>
    </contour>
  </outline>
</glyph>
<glyph name="uni25C6" format="1">
  <advance width="1200" height="1568"/>
  <unicode hex="25C6"/>
  <outline>
    <contour>
      <point x="600" y="1144" type="line"/>
      <point x="1200" y="544" type="line"/>
      <point x="600" y="-56" type="line"/>
      <point x="0" y="544" type="line"/>
    </contour>
  </outline>
</glyph>
<glyph name="uni25C8" format="1">
  <advance width="1200" height="1568"/>
  <unicode hex="25C8"/>
  <outline>
    <contour>
      <point x="600" y="1144" type="line"/>
      <point x="1200" y="544" type="line"/>
      <point x="600" y="-56" type="line"/>
      <point x="0" y="544" type="line"/>
    </contour>
    <contour>
      <point x="600" y="931.868" type="line"/>
      <point x="212.132" y="544" type="line"/>
      <point x="600" y="156.132" type="line"/>
      <point x="987.868" y="544" type="line"/>
    </contour>
    <contour>
      <point x="600" y="719.736" type="line"/>
      <point x="775.736" y="544" type="line"/>
      <point x="600" y="368.264" type="line"/>
      <point x="424.264" y="544" type="line"/>
    </contour>
  </outline>
</glyph>
<glyph name="uni25CC" format="1">
  <advance width="1200" height="1568"/>
  <unicode hex="25CC"/>
  <outline>
    <contour>
      <point x="750.664" y="932.64" type="curve" smooth="yes"/>
      <point x="750.664" y="973.64"/>
      <point x="784.664" y="1007.64"/>
      <point x="825.664" y="1007.64" type="curve" smooth="yes"/>
      <point x="866.664" y="1007.64"/>
      <point x="900.664" y="973.64"/>
      <point x="900.664" y="932.64" type="curve" smooth="yes"/>
      <point x="900.664" y="891.64"/>
      <point x="866.664" y="857.64"/>
      <point x="825.664" y="857.64" type="curve" smooth="yes"/>
      <point x="784.664" y="857.64"/>
      <point x="750.664" y="891.64"/>
    </contour>
    <contour>
      <point x="914.286" y="768.547" type="curve" smooth="yes"/>
      <point x="914.286" y="809.547"/>
      <point x="948.286" y="843.547"/>
      <point x="989.286" y="843.547" type="curve" smooth="yes"/>
      <point x="1030.29" y="843.547"/>
      <point x="1064.29" y="809.547"/>
      <point x="1064.29" y="768.547" type="curve" smooth="yes"/>
      <point x="1064.29" y="727.547"/>
      <point x="1030.29" y="693.547"/>
      <point x="989.286" y="693.547" type="curve" smooth="yes"/>
      <point x="948.286" y="693.547"/>
      <point x="914.286" y="727.547"/>
    </contour>
    <contour>
      <point x="150.44" y="469" type="curve" smooth="yes"/>
      <point x="109.44" y="469"/>
      <point x="75.4398" y="503"/>
      <point x="75.4398" y="544" type="curve" smooth="yes"/>
      <point x="75.4398" y="585"/>
      <point x="109.44" y="619"/>
      <point x="150.44" y="619" type="curve" smooth="yes"/>
      <point x="191.44" y="619"/>
      <point x="225.44" y="585"/>
      <point x="225.44" y="544" type="curve" smooth="yes"/>
      <point x="225.44" y="503"/>
      <point x="191.44" y="469"/>
    </contour>
    <contour>
      <point x="1050.44" y="469" type="curve" smooth="yes"/>
      <point x="1009.44" y="469"/>
      <point x="975.44" y="503"/>
      <point x="975.44" y="544" type="curve" smooth="yes"/>
      <point x="975.44" y="585"/>
      <point x="1009.44" y="619"/>
      <point x="1050.44" y="619" type="curve" smooth="yes"/>
      <point x="1091.44" y="619"/>
      <point x="1125.44" y="585"/>
      <point x="1125.44" y="544" type="curve" smooth="yes"/>
      <point x="1125.44" y="503"/>
      <point x="1091.44" y="469"/>
    </contour>
    <contour>
      <point x="525.44" y="994" type="curve" smooth="yes"/>
      <point x="525.44" y="1035"/>
      <point x="559.44" y="1069"/>
      <point x="600.44" y="1069" type="curve" smooth="yes"/>
      <point x="641.44" y="1069"/>
      <point x="675.44" y="1035"/>
      <point x="675.44" y="994" type="curve" smooth="yes"/>
      <point x="675.44" y="953"/>
      <point x="641.44" y="919"/>
      <point x="600.44" y="919" type="curve" smooth="yes"/>
      <point x="559.44" y="919"/>
      <point x="525.44" y="953"/>
    </contour>
    <contour>
      <point x="675.44" y="94" type="curve" smooth="yes"/>
      <point x="675.44" y="53"/>
      <point x="641.44" y="19"/>
      <point x="600.44" y="19" type="curve" smooth="yes"/>
      <point x="559.44" y="19"/>
      <point x="525.44" y="53"/>
      <point x="525.44" y="94" type="curve" smooth="yes"/>
      <point x="525.44" y="135"/>
      <point x="559.44" y="169"/>
      <point x="600.44" y="169" type="curve" smooth="yes"/>
      <point x="641.44" y="169"/>
      <point x="675.44" y="135"/>
    </contour>
    <contour>
      <point x="450.216" y="155.36" type="curve" smooth="yes"/>
      <point x="450.216" y="114.36"/>
      <point x="416.216" y="80.3597"/>
      <point x="375.216" y="80.3597" type="curve" smooth="yes"/>
      <point x="334.216" y="80.3597"/>
      <point x="300.216" y="114.36"/>
      <point x="300.216" y="155.36" type="curve" smooth="yes"/>
      <point x="300.216" y="196.36"/>
      <point x="334.216" y="230.36"/>
      <point x="375.216" y="230.36" type="curve" smooth="yes"/>
      <point x="416.216" y="230.36"/>
      <point x="450.216" y="196.36"/>
    </contour>
    <contour>
      <point x="286.594" y="319.453" type="curve" smooth="yes"/>
      <point x="286.594" y="278.453"/>
      <point x="252.594" y="244.453"/>
      <point x="211.594" y="244.453" type="curve" smooth="yes"/>
      <point x="170.594" y="244.453"/>
      <point x="136.594" y="278.453"/>
      <point x="136.594" y="319.453" type="curve" smooth="yes"/>
      <point x="136.594" y="360.453"/>
      <point x="170.594" y="394.453"/>
      <point x="211.594" y="394.453" type="curve" smooth="yes"/>
      <point x="252.594" y="394.453"/>
      <point x="286.594" y="360.453"/>
    </contour>
    <contour>
      <point x="450.216" y="932.64" type="curve" smooth="yes"/>
      <point x="450.216" y="891.64"/>
      <point x="416.216" y="857.64"/>
      <point x="375.216" y="857.64" type="curve" smooth="yes"/>
      <point x="334.216" y="857.64"/>
      <point x="300.216" y="891.64"/>
      <point x="300.216" y="932.64" type="curve" smooth="yes"/>
      <point x="300.216" y="973.64"/>
      <point x="334.216" y="1007.64"/>
      <point x="375.216" y="1007.64" type="curve" smooth="yes"/>
      <point x="416.216" y="1007.64"/>
      <point x="450.216" y="973.64"/>
    </contour>
    <contour>
      <point x="286.594" y="768.547" type="curve" smooth="yes"/>
      <point x="286.594" y="727.547"/>
      <point x="252.594" y="693.547"/>
      <point x="211.594" y="693.547" type="curve" smooth="yes"/>
      <point x="170.594" y="693.547"/>
      <point x="136.594" y="727.547"/>
      <point x="136.594" y="768.547" type="curve" smooth="yes"/>
      <point x="136.594" y="809.547"/>
      <point x="170.594" y="843.547"/>
      <point x="211.594" y="843.547" type="curve" smooth="yes"/>
      <point x="252.594" y="843.547"/>
      <point x="286.594" y="809.547"/>
    </contour>
    <contour>
      <point x="750.664" y="155.36" type="curve" smooth="yes"/>
      <point x="750.664" y="196.36"/>
      <point x="784.664" y="230.36"/>
      <point x="825.664" y="230.36" type="curve" smooth="yes"/>
      <point x="866.664" y="230.36"/>
      <point x="900.664" y="196.36"/>
      <point x="900.664" y="155.36" type="curve" smooth="yes"/>
      <point x="900.664" y="114.36"/>
      <point x="866.664" y="80.3597"/>
      <point x="825.664" y="80.3597" type="curve" smooth="yes"/>
      <point x="784.664" y="80.3597"/>
      <point x="750.664" y="114.36"/>
    </contour>
    <contour>
      <point x="914.286" y="319.453" type="curve" smooth="yes"/>
      <point x="914.286" y="360.453"/>
      <point x="948.286" y="394.453"/>
      <point x="989.286" y="394.453" type="curve" smooth="yes"/>
      <point x="1030.29" y="394.453"/>
      <point x="1064.29" y="360.453"/>
      <point x="1064.29" y="319.453" type="curve" smooth="yes"/>
      <point x="1064.29" y="278.453"/>
      <point x="1030.29" y="244.453"/>
      <point x="989.286" y="244.453" type="curve" smooth="yes"/>
      <point x="948.286" y="244.453"/>
      <point x="914.286" y="278.453"/>
    </contour>
  </outline>
</glyph>
<glyph name="uni25D0" format="1">
  <advance width="1200" height="1568"/>
  <unicode hex="25D0"/>
  <outline>
    <contour>
      <point x="600" y="169" type="line"/>
      <point x="806.875" y="169"/>
      <point x="975" y="337.125"/>
      <point x="975" y="544" type="curve" smooth="yes"/>
      <point x="975" y="750.875"/>
      <point x="806.875" y="919"/>
      <point x="600" y="919" type="curve"/>
    </contour>
    <contour>
      <point x="75" y="544" type="curve" smooth="yes"/>
      <point x="75" y="833.625"/>
      <point x="310.375" y="1069"/>
      <point x="600" y="1069" type="curve" smooth="yes"/>
      <point x="889.625" y="1069"/>
      <point x="1125" y="833.625"/>
      <point x="1125" y="544" type="curve" smooth="yes"/>
      <point x="1125" y="254.375"/>
      <point x="889.625" y="19"/>
      <point x="600" y="19" type="curve" smooth="yes"/>
      <point x="310.375" y="19"/>
      <point x="75" y="254.375"/>
    </contour>
  </outline>
</glyph>
<glyph name="uni25D3" format="1">
  <advance width="1200" height="1568"/>
  <unicode hex="25D3"/>
  <outline>
    <contour>
      <point x="75" y="544" type="curve" smooth="yes"/>
      <point x="75" y="833.625"/>
      <point x="310.375" y="1069"/>
      <point x="600" y="1069" type="curve" smooth="yes"/>
      <point x="889.625" y="1069"/>
      <point x="1125" y="833.625"/>
      <point x="1125" y="544" type="curve" smooth="yes"/>
      <point x="1125" y="254.375"/>
      <point x="889.625" y="19"/>
      <point x="600" y="19" type="curve" smooth="yes"/>
      <point x="310.375" y="19"/>
      <point x="75" y="254.375"/>
    </contour>
    <contour>
      <point x="225" y="544" type="line"/>
      <point x="225" y="337.125"/>
      <point x="393.125" y="169"/>
      <point x="600" y="169" type="curve" smooth="yes"/>
      <point x="806.875" y="169"/>
      <point x="975" y="337.125"/>
      <point x="975" y="544" type="curve"/>
    </contour>
  </outline>
</glyph>
<glyph name="invbullet" format="1">
  <advance width="1200" height="1568"/>
  <unicode hex="25D8"/>
  <outline>
    <contour>
      <point x="600" y="234" type="curve" smooth="yes"/>
      <point x="764" y="234"/>
      <point x="896" y="366"/>
      <point x="896" y="530" type="curve" smooth="yes"/>
      <point x="896" y="694"/>
      <point x="764" y="826"/>
      <point x="600" y="826" type="curve" smooth="yes"/>
      <point x="436" y="826"/>
      <point x="304" y="694"/>
      <point x="304" y="530" type="curve" smooth="yes"/>
      <point x="304" y="366"/>
      <point x="436" y="234"/>
    </contour>
    <contour>
      <point x="75" y="1069" type="line"/>
      <point x="1125" y="1069" type="line"/>
      <point x="1125" y="19" type="line"/>
      <point x="75" y="19" type="line"/>
    </contour>
  </outline>
</glyph>
<glyph name="uni25DA" format="1">
  <advance width="1200" height="1568"/>
  <unicode hex="25DA"/>
  <outline>
    <contour>
      <point x="75" y="544" type="line"/>
      <point x="75" y="833.625"/>
      <point x="310.375" y="1069"/>
      <point x="600" y="1069" type="curve" smooth="yes"/>
      <point x="889.625" y="1069"/>
      <point x="1125" y="833.625"/>
      <point x="1125" y="544" type="curve"/>
      <point x="1200" y="544" type="line"/>
      <point x="1200" y="1144" type="line"/>
      <point x="0" y="1144" type="line"/>
      <point x="0" y="544" type="line"/>
    </contour>
    <contour>
      <point x="225" y="544" type="curve"/>
      <point x="975" y="544" type="line"/>
      <point x="975" y="750.875"/>
      <point x="806.875" y="919"/>
      <point x="600" y="919" type="curve" smooth="yes"/>
      <point x="393.125" y="919"/>
      <point x="225" y="750.875"/>
    </contour>
  </outline>
</glyph>
<glyph name="uni25DC" format="1">
  <advance width="1200" height="1568"/>
  <unicode hex="25DC"/>
  <outline>
    <contour>
      <point x="600" y="1069" type="line"/>
      <point x="310.375" y="1069"/>
      <point x="75" y="833.625"/>
      <point x="75" y="544" type="curve"/>
      <point x="225" y="544" type="line"/>
      <point x="225" y="750.875"/>
      <point x="393.125" y="919"/>
      <point x="600" y="919" type="curve"/>
    </contour>
  </outline>
</glyph>
<glyph name="uni25DD" format="1">
  <advance width="1200" height="1568"/>
  <unicode hex="25DD"/>
  <outline>
    <contour>
      <point x="600" y="1069" type="line"/>
      <point x="889.625" y="1069"/>
      <point x="1125" y="833.625"/>
      <point x="1125" y="544" type="curve"/>
      <point x="975" y="544" type="line"/>
      <point x="975" y="750.875"/>
      <point x="806.875" y="919"/>
      <point x="600" y="919" type="curve"/>
    </contour>
  </outline>
</glyph>
<glyph name="uni25EC" format="1">
  <advance width="1200" height="1568"/>
  <unicode hex="25EC"/>
  <outline>
    <contour>
      <point x="600" y="1084" type="line"/>
      <point x="1200" y="64" type="line"/>
      <point x="0" y="64" type="line"/>
    </contour>
    <contour>
      <point x="600" y="788.154" type="line"/>
      <point x="262.262" y="214" type="line"/>
      <point x="937.738" y="214" type="line"/>
    </contour>
    <contour>
      <point x="675.44" y="424" type="curve" smooth="yes"/>
      <point x="675.44" y="383"/>
      <point x="641.44" y="349"/>
      <point x="600.44" y="349" type="curve" smooth="yes"/>
      <point x="559.44" y="349"/>
      <point x="525.44" y="383"/>
      <point x="525.44" y="424" type="curve" smooth="yes"/>
      <point x="525.44" y="465"/>
      <point x="559.44" y="499"/>
      <point x="600.44" y="499" type="curve" smooth="yes"/>
      <point x="641.44" y="499"/>
      <point x="675.44" y="465"/>
    </contour>
  </outline>
</glyph>
<glyph name="uni2B13" format="1">
  <advance width="1200" height="1568"/>
  <unicode hex="2B13"/>
  <outline>
    <contour>
      <point x="75" y="1069" type="line"/>
      <point x="1125" y="1069" type="line"/>
      <point x="1125" y="19" type="line"/>
      <point x="75" y="19" type="line"/>
    </contour>
    <contour>
      <point x="225" y="919" type="line"/>
      <point x="225" y="544" type="line"/>
      <point x="975" y="544" type="line"/>
      <point x="975" y="919" type="line"/>
    </contour>
  </outline>
</glyph>
<glyph name="uni2B1A" format="1">
  <advance width="1200" height="1568"/>
  <unicode hex="2B1A"/>
  <outline>
    <contour>
      <point x="375.44" y="994" type="curve" smooth="yes"/>
      <point x="375.44" y="1035"/>
      <point x="409.44" y="1069"/>
      <point x="450.44" y="1069" type="curve" smooth="yes"/>
      <point x="491.44" y="1069"/>
      <point x="525.44" y="1035"/>
      <point x="525.44" y="994" type="curve" smooth="yes"/>
      <point x="525.44" y="953"/>
      <point x="491.44" y="919"/>
      <point x="450.44" y="919" type="curve" smooth="yes"/>
      <point x="409.44" y="919"/>
      <point x="375.44" y="953"/>
    </contour>
    <contour>
      <point x="525.44" y="94" type="curve" smooth="yes"/>
      <point x="525.44" y="53"/>
      <point x="491.44" y="19"/>
      <point x="450.44" y="19" type="curve" smooth="yes"/>
      <point x="409.44" y="19"/>
      <point x="375.44" y="53"/>
      <point x="375.44" y="94" type="curve" smooth="yes"/>
      <point x="375.44" y="135"/>
      <point x="409.44" y="169"/>
      <point x="450.44" y="169" type="curve" smooth="yes"/>
      <point x="491.44" y="169"/>
      <point x="525.44" y="135"/>
    </contour>
    <contour>
      <point x="150.44" y="919" type="curve" smooth="yes"/>
      <point x="109.44" y="919"/>
      <point x="75.4398" y="953"/>
      <point x="75.4398" y="994" type="curve" smooth="yes"/>
      <point x="75.4398" y="1035"/>
      <point x="109.44" y="1069"/>
      <point x="150.44" y="1069" type="curve" smooth="yes"/>
      <point x="191.44" y="1069"/>
      <point x="225.44" y="1035"/>
      <point x="225.44" y="994" type="curve" smooth="yes"/>
      <point x="225.44" y="953"/>
      <point x="191.44" y="919"/>
    </contour>
    <contour>
      <point x="1050.44" y="919" type="curve" smooth="yes"/>
      <point x="1009.44" y="919"/>
      <point x="975.44" y="953"/>
      <point x="975.44" y="994" type="curve" smooth="yes"/>
      <point x="975.44" y="1035"/>
      <point x="1009.44" y="1069"/>
      <point x="1050.44" y="1069" type="curve" smooth="yes"/>
      <point x="1091.44" y="1069"/>
      <point x="1125.44" y="1035"/>
      <point x="1125.44" y="994" type="curve" smooth="yes"/>
      <point x="1125.44" y="953"/>
      <point x="1091.44" y="919"/>
    </contour>
    <contour>
      <point x="150.44" y="19" type="curve" smooth="yes"/>
      <point x="109.44" y="19"/>
      <point x="75.4398" y="53"/>
      <point x="75.4398" y="94" type="curve" smooth="yes"/>
      <point x="75.4398" y="135"/>
      <point x="109.44" y="169"/>
      <point x="150.44" y="169" type="curve" smooth="yes"/>
      <point x="191.44" y="169"/>
      <point x="225.44" y="135"/>
      <point x="225.44" y="94" type="curve" smooth="yes"/>
      <point x="225.44" y="53"/>
      <point x="191.44" y="19"/>
    </contour>
    <contour>
      <point x="1050.44" y="19" type="curve" smooth="yes"/>
      <point x="1009.44" y="19"/>
      <point x="975.44" y="53"/>
      <point x="975.44" y="94" type="curve" smooth="yes"/>
      <point x="975.44" y="135"/>
      <point x="1009.44" y="169"/>
      <point x="1050.44" y="169" type="curve" smooth="yes"/>
      <point x="1091.44" y="169"/>
      <point x="1125.44" y="135"/>
      <point x="1125.44" y="94" type="curve" smooth="yes"/>
      <point x="1125.44" y="53"/>
      <point x="1091.44" y="19"/>
    </contour>
    <contour>
      <point x="675.44" y="994" type="curve" smooth="yes"/>
      <point x="675.44" y="1035"/>
      <point x="709.44" y="1069"/>
      <point x="750.44" y="1069" type="curve" smooth="yes"/>
      <point x="791.44" y="1069"/>
      <point x="825.44" y="1035"/>
      <point x="825.44" y="994" type="curve" smooth="yes"/>
      <point x="825.44" y="953"/>
      <point x="791.44" y="919"/>
      <point x="750.44" y="919" type="curve" smooth="yes"/>
      <point x="709.44" y="919"/>
      <point x="675.44" y="953"/>
    </contour>
    <contour>
      <point x="825.44" y="94" type="curve" smooth="yes"/>
      <point x="825.44" y="53"/>
      <point x="791.44" y="19"/>
      <point x="750.44" y="19" type="curve" smooth="yes"/>
      <point x="709.44" y="19"/>
      <point x="675.44" y="53"/>
      <point x="675.44" y="94" type="curve" smooth="yes"/>
      <point x="675.44" y="135"/>
      <point x="709.44" y="169"/>
      <point x="750.44" y="169" type="curve" smooth="yes"/>
      <point x="791.44" y="169"/>
      <point x="825.44" y="135"/>
    </contour>
    <contour>
      <point x="150.44" y="319" type="curve" smooth="yes"/>
      <point x="109.44" y="319"/>
      <point x="75.4398" y="353"/>
      <point x="75.4398" y="394" type="curve" smooth="yes"/>
      <point x="75.4398" y="435"/>
      <point x="109.44" y="469"/>
      <point x="150.44" y="469" type="curve" smooth="yes"/>
      <point x="191.44" y="469"/>
      <point x="225.44" y="435"/>
      <point x="225.44" y="394" type="curve" smooth="yes"/>
      <point x="225.44" y="353"/>
      <point x="191.44" y="319"/>
    </contour>
    <contour>
      <point x="1050.44" y="469" type="curve" smooth="yes"/>
      <point x="1091.44" y="469"/>
      <point x="1125.44" y="435"/>
      <point x="1125.44" y="394" type="curve" smooth="yes"/>
      <point x="1125.44" y="353"/>
      <point x="1091.44" y="319"/>
      <point x="1050.44" y="319" type="curve" smooth="yes"/>
      <point x="1009.44" y="319"/>
      <point x="975.44" y="353"/>
      <point x="975.44" y="394" type="curve" smooth="yes"/>
      <point x="975.44" y="435"/>
      <point x="1009.44" y="469"/>
    </contour>
    <contour>
      <point x="150.44" y="619" type="curve" smooth="yes"/>
      <point x="109.44" y="619"/>
      <point x="75.4398" y="653"/>
      <point x="75.4398" y="694" type="curve" smooth="yes"/>
      <point x="75.4398" y="735"/>
      <point x="109.44" y="769"/>
      <point x="150.44" y="769" type="curve" smooth="yes"/>
      <point x="191.44" y="769"/>
      <point x="225.44" y="735"/>
      <point x="225.44" y="694" type="curve" smooth="yes"/>
      <point x="225.44" y="653"/>
      <point x="191.44" y="619"/>
    </contour>
    <contour>
      <point x="1050.44" y="769" type="curve" smooth="yes"/>
      <point x="1091.44" y="769"/>
      <point x="1125.44" y="735"/>
      <point x="1125.44" y="694" type="curve" smooth="yes"/>
      <point x="1125.44" y="653"/>
      <point x="1091.44" y="619"/>
      <point x="1050.44" y="619" type="curve" smooth="yes"/>
      <point x="1009.44" y="619"/>
      <point x="975.44" y="653"/>
      <point x="975.44" y="694" type="curve" smooth="yes"/>
      <point x="975.44" y="735"/>
      <point x="1009.44" y="769"/>
    </contour>
  </outline>
</glyph>
<glyph name="uni2B1E" format="1">
  <advance width="1200" height="1568"/>
  <unicode hex="2B1E"/>
  <outline>
    <contour>
      <point x="375" y="769" type="line"/>
      <point x="825" y="769" type="line"/>
      <point x="825" y="319" type="line"/>
      <point x="375" y="319" type="line"/>
    </contour>
    <contour>
      <point x="525" y="619" type="line"/>
      <point x="525" y="469" type="line"/>
      <point x="675" y="469" type="line"/>
      <point x="675" y="619" type="line"/>
    </contour>
  </outline>
</glyph>
<glyph name="uni2B21" format="1">
  <advance width="1200" height="1568"/>
  <unicode hex="2B21"/>
  <outline>
    <contour>
      <point x="80" y="244" type="line"/>
      <point x="80" y="844" type="line"/>
      <point x="600" y="1144" type="line"/>
      <point x="1120" y="844" type="line"/>
      <point x="1120" y="244" type="line"/>
      <point x="600" y="-56" type="line"/>
    </contour>
    <contour>
      <point x="230" y="330.635" type="line"/>
      <point x="600" y="117.173" type="line"/>
      <point x="970" y="330.635" type="line"/>
      <point x="970" y="757.365" type="line"/>
      <point x="600" y="970.827" type="line"/>
      <point x="230" y="757.365" type="line"/>
    </contour>
  </outline>
</glyph>
<glyph name="uni2B23" format="1">
  <advance width="1200" height="1568"/>
  <unicode hex="2B23"/>
  <outline>
    <contour>
      <point x="300" y="1064" type="line"/>
      <point x="900" y="1064" type="line"/>
      <point x="1200" y="544" type="line"/>
      <point x="900" y="24" type="line"/>
      <point x="300" y="24" type="line"/>
      <point x="0" y="544" type="line"/>
    </contour>
  </outline>
</glyph>
<glyph name="uni2B24" format="1">
  <advance width="1200" height="1568"/>
  <unicode hex="2B24"/>
  <outline>
    <contour>
      <point x="0" y="544" type="curve" smooth="yes"/>
      <point x="0" y="875"/>
      <point x="269" y="1144"/>
      <point x="600" y="1144" type="curve" smooth="yes"/>
      <point x="931" y="1144"/>
      <point x="1200" y="875"/>
      <point x="1200" y="544" type="curve" smooth="yes"/>
      <point x="1200" y="213"/>
      <point x="931" y="-56"/>
      <point x="600" y="-56" type="curve" smooth="yes"/>
      <point x="269" y="-56"/>
      <point x="0" y="213"/>
    </contour>
  </outline>
</glyph>
<glyph name="uni2B26" format="1">
  <advance width="1200" height="1568"/>
  <unicode hex="2B26"/>
  <outline>
    <contour>
      <point x="600" y="931.868" type="line"/>
      <point x="987.868" y="544" type="line"/>
      <point x="600" y="156.132" type="line"/>
      <point x="212.132" y="544" type="line"/>
    </contour>
    <contour>
      <point x="600" y="719.736" type="line"/>
      <point x="424.264" y="544" type="line"/>
      <point x="600" y="368.264" type="line"/>
      <point x="775.736" y="544" type="line"/>
    </contour>
  </outline>
</glyph>
<glyph name="uni2B27" format="1">
  <advance width="1200" height="1568"/>
  <unicode hex="2B27"/>
  <outline>
    <contour>
      <point x="600" y="998.226" type="line"/>
      <point x="872.536" y="544" type="line"/>
      <point x="600" y="89.7738" type="line"/>
      <point x="327.464" y="544" type="line"/>
    </contour>
  </outline>
</glyph>
<glyph name="uni2B28" format="1">
  <advance width="1200" height="1568"/>
  <unicode hex="2B28"/>
  <outline>
    <contour>
      <point x="600" y="998.226" type="line"/>
      <point x="872.536" y="544" type="line"/>
      <point x="600" y="89.7738" type="line"/>
      <point x="327.464" y="544" type="line"/>
    </contour>
    <contour>
      <point x="600" y="706.679" type="line"/>
      <point x="502.393" y="544" type="line"/>
      <point x="600" y="381.321" type="line"/>
      <point x="697.607" y="544" type="line"/>
    </contour>
  </outline>
</glyph>
<glyph name="uni2B2B" format="1">
  <advance width="1200" height="1568"/>
  <unicode hex="2B2B"/>
  <outline>
    <contour>
      <point x="600" y="852.452" type="line"/>
      <point x="785.071" y="544" type="line"/>
      <point x="600" y="235.548" type="line"/>
      <point x="414.929" y="544" type="line"/>
    </contour>
    <contour>
      <point x="600" y="658.087" type="line"/>
      <point x="531.548" y="544" type="line"/>
      <point x="600" y="429.913" type="line"/>
      <point x="668.452" y="544" type="line"/>
    </contour>
  </outline>
</glyph>
<glyph name="uni2B2E" format="1">
  <advance width="1200" height="1568"/>
  <unicode hex="2B2E"/>
  <outline>
    <contour>
      <point x="285" y="544" type="curve" smooth="yes"/>
      <point x="285" y="833.625"/>
      <point x="426.225" y="1069"/>
      <point x="600" y="1069" type="curve" smooth="yes"/>
      <point x="773.775" y="1069"/>
      <point x="915" y="833.625"/>
      <point x="915" y="544" type="curve" smooth="yes"/>
      <point x="915" y="254.375"/>
      <point x="773.775" y="19"/>
      <point x="600" y="19" type="curve" smooth="yes"/>
      <point x="426.225" y="19"/>
      <point x="285" y="254.375"/>
    </contour>
  </outline>
</glyph>
<glyph name="uni2BC6" format="1">
  <advance width="1200" height="1568"/>
  <unicode hex="2BC6"/>
  <outline>
    <contour>
      <point x="600" y="299.846" type="line"/>
      <point x="262.262" y="874" type="line"/>
      <point x="937.738" y="874" type="line"/>
    </contour>
  </outline>
</glyph>
<glyph name="uni2BC8" format="1">
  <advance width="1200" height="1568"/>
  <unicode hex="2BC8"/>
  <outline>
    <contour>
      <point x="844.154" y="544" type="line"/>
      <point x="270" y="206.262" type="line"/>
      <point x="270" y="881.738" type="line"/>
    </contour>
  </outline>
</glyph>
<glyph name="a.salt" format="1">
  <advance width="1200"/>
  <outline>
    <contour>
      <point x="453.384" y="-20" type="curve" smooth="yes"/>
      <point x="613" y="-20"/>
      <point x="814" y="64.1396"/>
      <point x="853.177" y="195.76" type="curve"/>
      <point x="903.115" y="196" type="line"/>
      <point x="903" y="352" type="line"/>
      <point x="843.4" y="351.682" type="line"/>
      <point x="844.65" y="345.35"/>
      <point x="845.246" y="339.1"/>
      <point x="845.223" y="332.943" type="curve" smooth="yes"/>
      <point x="844.834" y="228.096"/>
      <point x="665.017" y="150"/>
      <point x="478" y="150" type="curve" smooth="yes"/>
      <point x="358" y="150"/>
      <point x="296" y="204"/>
      <point x="296" y="298.005" type="curve" smooth="yes"/>
      <point x="296" y="410"/>
      <point x="384" y="464"/>
      <point x="552" y="464" type="curve" smooth="yes"/>
      <point x="648" y="464"/>
      <point x="738" y="464"/>
      <point x="834" y="424" type="curve"/>
      <point x="878" y="568" type="line"/>
      <point x="798" y="612"/>
      <point x="696" y="634"/>
      <point x="568.559" y="634" type="curve" smooth="yes"/>
      <point x="266" y="634"/>
      <point x="96" y="510"/>
      <point x="96" y="286" type="curve" smooth="yes"/>
      <point x="96" y="90"/>
      <point x="224" y="-20"/>
    </contour>
    <contour>
      <point x="772.092" y="712.935" type="curve" smooth="yes"/>
      <point x="873.848" y="196" type="line"/>
      <point x="922" y="0" type="line"/>
      <point x="1114.82" y="0" type="line"/>
      <point x="966.993" y="749.026" type="line" smooth="yes"/>
      <point x="926.396" y="954.488"/>
      <point x="758.383" y="1060.06"/>
      <point x="460" y="1072" type="curve" smooth="yes"/>
      <point x="246" y="1080" type="line"/>
      <point x="226" y="900" type="line"/>
      <point x="480" y="888" type="line" smooth="yes"/>
      <point x="653.612" y="879.142"/>
      <point x="749.717" y="825.945"/>
    </contour>
  </outline>
</glyph>
<glyph name="acutecomb.case" format="1">
  <advance width="1200"/>
    <anchor name="_top" x="600" y="1420"/>
  <outline>
    <contour>
      <point x="991" y="1830" type="line"/>
      <point x="709" y="1830" type="line"/>
      <point x="489" y="1580" type="line"/>
      <point x="731" y="1580" type="line"/>
    </contour>
    <contour>
      <point x="600" y="1420" type="move" name="_top"/>
    </contour>
  </outline>
</glyph>
<glyph name="acutecomb.case.loclPLK" format="1">
  <advance width="1200"/>
    <anchor name="_top" x="600" y="1420"/>
  <outline>
    <contour>
      <point x="791" y="1840" type="line"/>
      <point x="549" y="1840" type="line"/>
      <point x="519" y="1540" type="line"/>
      <point x="701" y="1540" type="line"/>
    </contour>
    <contour>
      <point x="600" y="1420" type="move" name="_top"/>
    </contour>
  </outline>
</glyph>
<glyph name="acutecomb.loclPLK" format="1">
  <advance width="1200"/>
    <anchor name="_top" x="570" y="1060"/>
    <anchor name="top" x="570" y="1648"/>
  <outline>
    <contour>
      <point x="781" y="1648" type="line"/>
      <point x="569" y="1648" type="line"/>
      <point x="479" y="1248" type="line"/>
      <point x="671" y="1248" type="line"/>
    </contour>
    <contour>
      <point x="570" y="1060" type="move" name="_top"/>
    </contour>
    <contour>
      <point x="570" y="1648" type="move" name="top"/>
    </contour>
  </outline>
</glyph>
<glyph name="asciicircum_equal.liga" format="1">
  <advance width="1200"/>
  <outline>
    <contour>
      <point x="-760" y="658" type="line"/>
      <point x="-534" y="1260" type="line"/>
      <point x="-516" y="1260" type="line"/>
      <point x="-364" y="866" type="line"/>
      <point x="-144" y="866" type="line"/>
      <point x="-390" y="1420" type="line"/>
      <point x="-660" y="1420" type="line"/>
      <point x="-980" y="658" type="line"/>
    </contour>
    <contour>
      <point x="920" y="366" type="line"/>
      <point x="920" y="552" type="line"/>
      <point x="-64" y="552" type="line"/>
      <point x="-64" y="366" type="line"/>
    </contour>
    <contour>
      <point x="920" y="866" type="line"/>
      <point x="920" y="1052" type="line"/>
      <point x="-364" y="1052" type="line"/>
      <point x="-364" y="866" type="line"/>
    </contour>
  </outline>
</glyph>
<glyph name="asciitilde_equal.liga" format="1">
  <advance width="1200"/>
  <outline>
    <contour>
      <point x="-496" y="566" type="line"/>
      <point x="-496" y="596" type="line" smooth="yes"/>
      <point x="-496" y="719"/>
      <point x="-429" y="780"/>
      <point x="-296" y="780" type="curve" smooth="yes"/>
      <point x="-68" y="780"/>
      <point x="102" y="650"/>
      <point x="330" y="650" type="curve" smooth="yes"/>
      <point x="579" y="650"/>
      <point x="700" y="778"/>
      <point x="700" y="1040" type="curve" smooth="yes"/>
      <point x="700" y="1090" type="line"/>
      <point x="498" y="1090" type="line"/>
      <point x="498" y="1060" type="line" smooth="yes"/>
      <point x="498" y="923"/>
      <point x="440" y="856"/>
      <point x="328" y="856" type="curve" smooth="yes"/>
      <point x="102" y="856"/>
      <point x="-64" y="986"/>
      <point x="-290" y="986" type="curve" smooth="yes"/>
      <point x="-565" y="986"/>
      <point x="-700" y="864"/>
      <point x="-700" y="616" type="curve" smooth="yes"/>
      <point x="-700" y="566" type="line"/>
    </contour>
    <contour>
      <point x="700" y="246" type="line"/>
      <point x="700" y="432" type="line"/>
      <point x="-700" y="432" type="line"/>
      <point x="-700" y="246" type="line"/>
    </contour>
  </outline>
</glyph>
<glyph name="bar_bar_bar_greater.liga" format="1">
  <advance width="1200"/>
  <outline>
    <contour>
      <point x="700" y="608" type="line"/>
      <point x="700" y="810" type="line"/>
      <point x="-804" y="1430" type="line"/>
      <point x="-804" y="1190" type="line"/>
      <point x="442" y="718" type="line"/>
      <point x="442" y="700" type="line"/>
      <point x="-804" y="230" type="line"/>
      <point x="-804" y="-10" type="line"/>
    </contour>
    <contour>
      <point x="-604" y="90" type="line"/>
      <point x="-604" y="1330" type="line"/>
      <point x="-804" y="1430" type="line"/>
      <point x="-804" y="-10" type="line"/>
    </contour>
    <component base="bar" xOffset="-3244"/>
    <component base="bar" xOffset="-2244"/>
  </outline>
</glyph>
<glyph name="bar_bracketright.liga" format="1">
  <advance width="1200"/>
  <outline>
    <contour>
      <point x="654" y="-200" type="line"/>
      <point x="654" y="1620" type="line"/>
      <point x="452" y="1620" type="line"/>
      <point x="452" y="-200" type="line"/>
    </contour>
    <contour>
      <point x="472" y="-200" type="line"/>
      <point x="472" y="-24" type="line"/>
      <point x="-114" y="-24" type="line"/>
      <point x="-114" y="-200" type="line"/>
    </contour>
    <contour>
      <point x="472" y="1444" type="line"/>
      <point x="472" y="1620" type="line"/>
      <point x="-114" y="1620" type="line"/>
      <point x="-114" y="1444" type="line"/>
    </contour>
    <component base="bar" xOffset="-1154"/>
  </outline>
</glyph>
<glyph name="bar_hyphen.liga" format="1">
  <advance width="1200"/>
  <outline>
    <contour>
      <point x="920" y="616" type="line"/>
      <point x="920" y="802" type="line"/>
      <point x="-720" y="802" type="line"/>
      <point x="-720" y="616" type="line"/>
    </contour>
    <component base="bar" xScale="-1" xOffset="-46"/>
  </outline>
</glyph>
<glyph name="bracketleft_bar.liga" format="1">
  <advance width="1200"/>
  <outline>
    <contour>
      <point x="-458" y="-200" type="line"/>
      <point x="-458" y="1620" type="line"/>
      <point x="-660" y="1620" type="line"/>
      <point x="-660" y="-200" type="line"/>
    </contour>
    <contour>
      <point x="188" y="-200" type="line"/>
      <point x="188" y="-24" type="line"/>
      <point x="-478" y="-24" type="line"/>
      <point x="-478" y="-200" type="line"/>
    </contour>
    <contour>
      <point x="188" y="1444" type="line"/>
      <point x="188" y="1620" type="line"/>
      <point x="-478" y="1620" type="line"/>
      <point x="-478" y="1444" type="line"/>
    </contour>
    <component base="bar" xOffset="-46"/>
  </outline>
</glyph>
<glyph name="brevecomb.case" format="1">
  <advance width="1200"/>
    <anchor name="_top" x="600" y="1420"/>
  <outline>
    <contour>
      <point x="729" y="1840" type="line"/>
      <point x="729" y="1761"/>
      <point x="682" y="1716"/>
      <point x="600" y="1716" type="curve" smooth="yes"/>
      <point x="518" y="1716"/>
      <point x="471" y="1761"/>
      <point x="471" y="1840" type="curve"/>
      <point x="296" y="1840" type="line"/>
      <point x="296" y="1675"/>
      <point x="407" y="1580"/>
      <point x="600" y="1580" type="curve" smooth="yes"/>
      <point x="793" y="1580"/>
      <point x="904" y="1675"/>
      <point x="904" y="1840" type="curve"/>
    </contour>
    <contour>
      <point x="600" y="1420" type="move" name="_top"/>
    </contour>
  </outline>
</glyph>
<glyph name="caroncomb.case" format="1">
  <advance width="1200"/>
    <anchor name="_top" x="600" y="1420"/>
    <anchor name="top" x="600" y="1840"/>
  <outline>
    <contour>
      <point x="724" y="1840" type="line"/>
      <point x="590" y="1684" type="line"/>
      <point x="610" y="1684" type="line"/>
      <point x="476" y="1840" type="line"/>
      <point x="254" y="1840" type="line"/>
      <point x="514" y="1580" type="line"/>
      <point x="686" y="1580" type="line"/>
      <point x="946" y="1840" type="line"/>
    </contour>
    <contour>
      <point x="600" y="1420" type="move" name="_top"/>
    </contour>
    <contour>
      <point x="600" y="1840" type="move" name="top"/>
    </contour>
  </outline>
</glyph>
<glyph name="circumflexcomb.case" format="1">
  <advance width="1200"/>
    <anchor name="_top" x="600" y="1420"/>
  <outline>
    <contour>
      <point x="691" y="1840" type="line"/>
      <point x="519" y="1840" type="line"/>
      <point x="259" y="1580" type="line"/>
      <point x="481" y="1580" type="line"/>
      <point x="615" y="1736" type="line"/>
      <point x="595" y="1736" type="line"/>
      <point x="729" y="1580" type="line"/>
      <point x="951" y="1580" type="line"/>
    </contour>
    <contour>
      <point x="600" y="1420" type="move" name="_top"/>
    </contour>
  </outline>
</glyph>
<glyph name="colon_equal.liga" format="1">
  <advance width="1200"/>
  <outline>
    <contour>
      <point x="920" y="826" type="line"/>
      <point x="920" y="1012" type="line"/>
      <point x="-200" y="1012" type="line"/>
      <point x="-200" y="826" type="line"/>
    </contour>
    <contour>
      <point x="920" y="326" type="line"/>
      <point x="920" y="512" type="line"/>
      <point x="-200" y="512" type="line"/>
      <point x="-200" y="326" type="line"/>
    </contour>
    <component base="colon" xOffset="-1260" yOffset="180"/>
  </outline>
</glyph>
<glyph name="colon_greater.liga" format="1">
  <advance width="1200"/>
  <outline>
    <contour>
      <point x="962" y="608" type="line"/>
      <point x="962" y="810" type="line"/>
      <point x="-156" y="1204" type="line"/>
      <point x="-156" y="984" type="line"/>
      <point x="664" y="718" type="line"/>
      <point x="664" y="700" type="line"/>
      <point x="-156" y="434" type="line"/>
      <point x="-156" y="214" type="line"/>
    </contour>
    <component base="colon" xOffset="-1260" yOffset="180"/>
  </outline>
</glyph>
<glyph name="colon_less.liga" format="1">
  <advance width="1200"/>
  <outline>
    <contour>
      <point x="920" y="434" type="line"/>
      <point x="100" y="700" type="line"/>
      <point x="100" y="718" type="line"/>
      <point x="920" y="984" type="line"/>
      <point x="920" y="1204" type="line"/>
      <point x="-198" y="810" type="line"/>
      <point x="-198" y="608" type="line"/>
      <point x="920" y="214" type="line"/>
    </contour>
    <component base="colon" xOffset="-1252" yOffset="180"/>
  </outline>
</glyph>
<glyph name="dieresiscomb.case" format="1">
  <advance width="1200"/>
    <anchor name="_top" x="600" y="1420"/>
  <outline>
    <contour>
      <point x="388" y="1580" type="curve" smooth="yes"/>
      <point x="462" y="1580"/>
      <point x="522" y="1640"/>
      <point x="522" y="1714" type="curve" smooth="yes"/>
      <point x="522" y="1789"/>
      <point x="462" y="1848"/>
      <point x="388" y="1848" type="curve" smooth="yes"/>
      <point x="314" y="1848"/>
      <point x="254" y="1789"/>
      <point x="254" y="1714" type="curve" smooth="yes"/>
      <point x="254" y="1640"/>
      <point x="314" y="1580"/>
    </contour>
    <contour>
      <point x="808" y="1580" type="curve" smooth="yes"/>
      <point x="882" y="1580"/>
      <point x="942" y="1640"/>
      <point x="942" y="1714" type="curve" smooth="yes"/>
      <point x="942" y="1789"/>
      <point x="882" y="1848"/>
      <point x="808" y="1848" type="curve" smooth="yes"/>
      <point x="734" y="1848"/>
      <point x="674" y="1789"/>
      <point x="674" y="1714" type="curve" smooth="yes"/>
      <point x="674" y="1640"/>
      <point x="734" y="1580"/>
    </contour>
    <contour>
      <point x="600" y="1420" type="move" name="_top"/>
    </contour>
  </outline>
</glyph>
<glyph name="dotaccentcomb.case" format="1">
  <advance width="1200"/>
    <anchor name="_top" x="600" y="1420"/>
    <anchor name="top" x="600" y="1848"/>
  <outline>
    <contour>
      <point x="600" y="1580" type="curve" smooth="yes"/>
      <point x="674" y="1580"/>
      <point x="734" y="1640"/>
      <point x="734" y="1714" type="curve" smooth="yes"/>
      <point x="734" y="1789"/>
      <point x="674" y="1848"/>
      <point x="600" y="1848" type="curve" smooth="yes"/>
      <point x="526" y="1848"/>
      <point x="466" y="1789"/>
      <point x="466" y="1714" type="curve" smooth="yes"/>
      <point x="466" y="1640"/>
      <point x="526" y="1580"/>
    </contour>
    <contour>
      <point x="600" y="1420" type="move" name="_top"/>
    </contour>
    <contour>
      <point x="600" y="1848" type="move" name="top"/>
    </contour>
  </outline>
</glyph>
<glyph name="equal_equal_equal.liga" format="1">
  <advance width="1200"/>
  <outline>
    <contour>
      <point x="920" y="1026" type="line"/>
      <point x="920" y="1212" type="line"/>
      <point x="-2120" y="1212" type="line"/>
      <point x="-2120" y="1026" type="line"/>
    </contour>
    <contour>
      <point x="920" y="206" type="line"/>
      <point x="920" y="392" type="line"/>
      <point x="-2120" y="392" type="line"/>
      <point x="-2120" y="206" type="line"/>
    </contour>
    <contour>
      <point x="920" y="616" type="line"/>
      <point x="920" y="802" type="line"/>
      <point x="-2120" y="802" type="line"/>
      <point x="-2120" y="616" type="line"/>
    </contour>
  </outline>
</glyph>
<glyph name="equal_exclam_equal.liga" format="1">
  <advance width="1200"/>
  <outline>
    <contour>
      <point x="-506" y="456" type="line"/>
      <point x="-496" y="1430" type="line"/>
      <point x="-704" y="1430" type="line"/>
      <point x="-698" y="456" type="line"/>
    </contour>
    <component base="equal" xOffset="-2220"/>
    <component base="equal" xOffset="-180"/>
    <component base="period" xOffset="-1200"/>
  </outline>
</glyph>
<glyph name="equal_less_less.liga" format="1">
  <advance width="1200"/>
  <outline>
    <contour>
      <point x="920" y="332" type="line"/>
      <point x="260" y="700" type="line"/>
      <point x="260" y="718" type="line"/>
      <point x="920" y="1084" type="line"/>
      <point x="920" y="1304" type="line"/>
      <point x="-34" y="770" type="line"/>
      <point x="-34" y="648" type="line"/>
      <point x="920" y="112" type="line"/>
    </contour>
    <contour>
      <point x="-292" y="366" type="line"/>
      <point x="-292" y="552" type="line"/>
      <point x="-2120" y="552" type="line"/>
      <point x="-2120" y="366" type="line"/>
    </contour>
    <contour>
      <point x="-292" y="866" type="line"/>
      <point x="-292" y="1052" type="line"/>
      <point x="-2120" y="1052" type="line"/>
      <point x="-2120" y="866" type="line"/>
    </contour>
    <contour>
      <point x="100" y="332" type="line"/>
      <point x="-292" y="552" type="line"/>
      <point x="-424" y="408" type="line"/>
      <point x="100" y="112" type="line"/>
    </contour>
    <contour>
      <point x="100" y="1084" type="line"/>
      <point x="100" y="1304" type="line"/>
      <point x="-424" y="1008" type="line"/>
      <point x="-292" y="866" type="line"/>
    </contour>
  </outline>
</glyph>
<glyph name="equal_slash_equal.liga" format="1">
  <advance width="1200"/>
  <outline>
    <contour>
      <point x="-914" y="-100" type="line"/>
      <point x="-100" y="1520" type="line"/>
      <point x="-302" y="1520" type="line"/>
      <point x="-1116" y="-100" type="line"/>
    </contour>
    <contour>
      <point x="1020" y="366" type="line"/>
      <point x="1020" y="552" type="line"/>
      <point x="-2220" y="552" type="line"/>
      <point x="-2220" y="366" type="line"/>
    </contour>
    <contour>
      <point x="1020" y="866" type="line"/>
      <point x="1020" y="1052" type="line"/>
      <point x="-2220" y="1052" type="line"/>
      <point x="-2220" y="866" type="line"/>
    </contour>
  </outline>
</glyph>
<glyph name="exclam_equal.liga" format="1">
  <advance width="1200"/>
  <outline>
    <contour>
      <point x="-314" y="-100" type="line"/>
      <point x="500" y="1520" type="line"/>
      <point x="298" y="1520" type="line"/>
      <point x="-516" y="-100" type="line"/>
    </contour>
    <contour>
      <point x="1020" y="366" type="line"/>
      <point x="1020" y="552" type="line"/>
      <point x="-1020" y="552" type="line"/>
      <point x="-1020" y="366" type="line"/>
    </contour>
    <contour>
      <point x="1020" y="866" type="line"/>
      <point x="1020" y="1052" type="line"/>
      <point x="-1020" y="1052" type="line"/>
      <point x="-1020" y="866" type="line"/>
    </contour>
  </outline>
</glyph>
<glyph name="exclam_equal_equal.liga" format="1">
  <advance width="1200"/>
  <outline>
    <contour>
      <point x="-874" y="-100" type="line"/>
      <point x="-60" y="1520" type="line"/>
      <point x="-262" y="1520" type="line"/>
      <point x="-1076" y="-100" type="line"/>
    </contour>
    <contour>
      <point x="920" y="206" type="line"/>
      <point x="920" y="392" type="line"/>
      <point x="-2120" y="392" type="line"/>
      <point x="-2120" y="206" type="line"/>
    </contour>
    <contour>
      <point x="920" y="616" type="line"/>
      <point x="920" y="802" type="line"/>
      <point x="-2120" y="802" type="line"/>
      <point x="-2120" y="616" type="line"/>
    </contour>
    <contour>
      <point x="920" y="1026" type="line"/>
      <point x="920" y="1212" type="line"/>
      <point x="-2120" y="1212" type="line"/>
      <point x="-2120" y="1026" type="line"/>
    </contour>
  </outline>
</glyph>
<glyph name="exclam_exclam.liga" format="1">
  <advance width="1200"/>
  <outline>
    <contour>
      <point x="-366" y="456" type="line"/>
      <point x="-356" y="1430" type="line"/>
      <point x="-564" y="1430" type="line"/>
      <point x="-558" y="456" type="line"/>
    </contour>
    <component base="period" xOffset="-1060"/>
    <component base="period" xOffset="-140"/>
  </outline>
</glyph>
<glyph name="exclam_exclam_period.liga" format="1">
  <advance width="1200"/>
  <outline>
    <contour>
      <point x="-1606" y="456" type="line"/>
      <point x="-1596" y="1430" type="line"/>
      <point x="-1804" y="1430" type="line"/>
      <point x="-1798" y="456" type="line"/>
    </contour>
    <component base="period" xOffset="-2300"/>
    <component base="period" xOffset="-1180"/>
    <component base="period" xOffset="-100"/>
  </outline>
</glyph>
<glyph name="gravecomb.case" format="1">
  <advance width="1200"/>
    <anchor name="_top" x="600" y="1420"/>
  <outline>
    <contour>
      <point x="741" y="1580" type="line"/>
      <point x="521" y="1830" type="line"/>
      <point x="239" y="1830" type="line"/>
      <point x="499" y="1580" type="line"/>
    </contour>
    <contour>
      <point x="600" y="1420" type="move" name="_top"/>
    </contour>
  </outline>
</glyph>
<glyph name="greater_greater.liga" format="1">
  <advance width="1200"/>
  <outline>
    <contour>
      <point x="960" y="608" type="line"/>
      <point x="960" y="810" type="line"/>
      <point x="2" y="1244" type="line"/>
      <point x="2" y="1024" type="line"/>
      <point x="702" y="718" type="line"/>
      <point x="702" y="700" type="line"/>
      <point x="2" y="394" type="line"/>
      <point x="2" y="174" type="line"/>
    </contour>
    <contour>
      <point x="38" y="608" type="line"/>
      <point x="38" y="810" type="line"/>
      <point x="-920" y="1244" type="line"/>
      <point x="-920" y="1024" type="line"/>
      <point x="-220" y="718" type="line"/>
      <point x="-220" y="700" type="line"/>
      <point x="-920" y="394" type="line"/>
      <point x="-920" y="174" type="line"/>
    </contour>
  </outline>
</glyph>
<glyph name="greater_greater_hyphen.liga" format="1">
  <advance width="1200"/>
  <outline>
    <contour>
      <point x="-326" y="648" type="line"/>
      <point x="-326" y="770" type="line"/>
      <point x="-1300" y="1304" type="line"/>
      <point x="-1300" y="1084" type="line"/>
      <point x="-640" y="718" type="line"/>
      <point x="-640" y="700" type="line"/>
      <point x="-1300" y="332" type="line"/>
      <point x="-1300" y="112" type="line"/>
    </contour>
    <contour>
      <point x="-1166" y="648" type="line"/>
      <point x="-1166" y="770" type="line"/>
      <point x="-2120" y="1304" type="line"/>
      <point x="-2120" y="1084" type="line"/>
      <point x="-1460" y="718" type="line"/>
      <point x="-1460" y="700" type="line"/>
      <point x="-2120" y="332" type="line"/>
      <point x="-2120" y="112" type="line"/>
    </contour>
    <contour>
      <point x="920" y="614" type="line"/>
      <point x="920" y="802" type="line"/>
      <point x="-412" y="802" type="line"/>
      <point x="-412" y="614" type="line"/>
    </contour>
  </outline>
</glyph>
<glyph name="greater_hyphen.liga" format="1">
  <advance width="1200"/>
  <outline>
    <contour>
      <point x="34" y="648" type="line"/>
      <point x="34" y="770" type="line"/>
      <point x="-920" y="1304" type="line"/>
      <point x="-920" y="1084" type="line"/>
      <point x="-260" y="718" type="line"/>
      <point x="-260" y="700" type="line"/>
      <point x="-920" y="332" type="line"/>
      <point x="-920" y="112" type="line"/>
    </contour>
    <contour>
      <point x="920" y="614" type="line"/>
      <point x="920" y="802" type="line"/>
      <point x="-62" y="802" type="line"/>
      <point x="-62" y="614" type="line"/>
    </contour>
  </outline>
</glyph>
<glyph name="hungarumlautcomb.case" format="1">
  <advance width="1200"/>
    <anchor name="_top" x="600" y="1420"/>
  <outline>
    <contour>
      <point x="691" y="1830" type="line"/>
      <point x="409" y="1830" type="line"/>
      <point x="249" y="1580" type="line"/>
      <point x="491" y="1580" type="line"/>
    </contour>
    <contour>
      <point x="1101" y="1830" type="line"/>
      <point x="819" y="1830" type="line"/>
      <point x="659" y="1580" type="line"/>
      <point x="901" y="1580" type="line"/>
    </contour>
    <contour>
      <point x="600" y="1420" type="move" name="_top"/>
    </contour>
  </outline>
</glyph>
<glyph name="hyphen_greater_greater.liga" format="1">
  <advance width="1200"/>
  <outline>
    <contour>
      <point x="960" y="648" type="line"/>
      <point x="960" y="770" type="line"/>
      <point x="6" y="1304" type="line"/>
      <point x="6" y="1064" type="line"/>
      <point x="656" y="718" type="line"/>
      <point x="656" y="700" type="line"/>
      <point x="6" y="352" type="line"/>
      <point x="6" y="112" type="line"/>
    </contour>
    <contour>
      <point x="-240" y="614" type="line"/>
      <point x="-240" y="802" type="line"/>
      <point x="-2120" y="802" type="line"/>
      <point x="-2120" y="614" type="line"/>
    </contour>
    <contour>
      <point x="78" y="648" type="line"/>
      <point x="78" y="770" type="line"/>
      <point x="-876" y="1304" type="line"/>
      <point x="-876" y="1064" type="line"/>
      <point x="-444" y="868"/>
      <point x="-348" y="850"/>
      <point x="-294" y="846" type="curve"/>
      <point x="-294" y="570" type="line"/>
      <point x="-344" y="566"/>
      <point x="-432" y="533"/>
      <point x="-876" y="352" type="curve"/>
      <point x="-876" y="112" type="line"/>
    </contour>
  </outline>
</glyph>
<glyph name="hyphen_hyphen.liga" format="1">
  <advance width="1200"/>
  <outline>
    <contour>
      <point x="920" y="616" type="line"/>
      <point x="920" y="802" type="line"/>
      <point x="120" y="802" type="line"/>
      <point x="120" y="616" type="line"/>
    </contour>
    <contour>
      <point x="-140" y="616" type="line"/>
      <point x="-140" y="802" type="line"/>
      <point x="-920" y="802" type="line"/>
      <point x="-920" y="616" type="line"/>
    </contour>
  </outline>
</glyph>
<glyph name="hyphen_hyphen_greater.liga" format="1">
  <advance width="1200"/>
  <outline>
    <contour>
      <point x="960" y="648" type="line"/>
      <point x="960" y="770" type="line"/>
      <point x="6" y="1304" type="line"/>
      <point x="6" y="1064" type="line"/>
      <point x="438" y="870"/>
      <point x="534" y="850"/>
      <point x="588" y="846" type="curve"/>
      <point x="588" y="570" type="line"/>
      <point x="538" y="566"/>
      <point x="450" y="540"/>
      <point x="6" y="352" type="curve"/>
      <point x="6" y="112" type="line"/>
    </contour>
    <contour>
      <point x="642" y="614" type="line"/>
      <point x="642" y="802" type="line"/>
      <point x="-2120" y="802" type="line"/>
      <point x="-2120" y="614" type="line"/>
    </contour>
  </outline>
</glyph>
<glyph name="hyphen_hyphen_hyphen.liga" format="1">
  <advance width="1200"/>
  <outline>
    <contour>
      <point x="920" y="616" type="line"/>
      <point x="920" y="802" type="line"/>
      <point x="120" y="802" type="line"/>
      <point x="120" y="616" type="line"/>
    </contour>
    <contour>
      <point x="-1340" y="616" type="line"/>
      <point x="-1340" y="802" type="line"/>
      <point x="-2120" y="802" type="line"/>
      <point x="-2120" y="616" type="line"/>
    </contour>
    <contour>
      <point x="-210" y="616" type="line"/>
      <point x="-210" y="802" type="line"/>
      <point x="-1010" y="802" type="line"/>
      <point x="-1010" y="616" type="line"/>
    </contour>
  </outline>
</glyph>
<glyph name="less_bar.liga" format="1">
  <advance width="1200"/>
  <outline>
    <contour>
      <point x="659" y="230" type="line"/>
      <point x="-587" y="700" type="line"/>
      <point x="-587" y="718" type="line"/>
      <point x="659" y="1190" type="line"/>
      <point x="659" y="1430" type="line"/>
      <point x="-845" y="810" type="line"/>
      <point x="-845" y="608" type="line"/>
      <point x="659" y="-10" type="line"/>
    </contour>
    <contour>
      <point x="659" y="1430" type="line"/>
      <point x="459" y="1330" type="line"/>
      <point x="459" y="90" type="line"/>
      <point x="659" y="-10" type="line"/>
    </contour>
  </outline>
</glyph>
<glyph name="less_bar_bar.liga" format="1">
  <advance width="1200"/>
  <outline>
    <contour>
      <point x="-400" y="230" type="line"/>
      <point x="-1646" y="700" type="line"/>
      <point x="-1646" y="718" type="line"/>
      <point x="-400" y="1190" type="line"/>
      <point x="-400" y="1430" type="line"/>
      <point x="-1904" y="810" type="line"/>
      <point x="-1904" y="608" type="line"/>
      <point x="-400" y="-10" type="line"/>
    </contour>
    <contour>
      <point x="-400" y="1430" type="line"/>
      <point x="-600" y="1330" type="line"/>
      <point x="-600" y="90" type="line"/>
      <point x="-400" y="-10" type="line"/>
    </contour>
    <component base="bar" xOffset="-160"/>
  </outline>
</glyph>
<glyph name="less_equal.liga" format="1">
  <advance width="1200"/>
  <outline>
    <contour>
      <point x="574" y="704" type="line"/>
      <point x="-322" y="950" type="line"/>
      <point x="-322" y="968" type="line"/>
      <point x="574" y="1214" type="line"/>
      <point x="574" y="1434" type="line"/>
      <point x="-630" y="1060" type="line"/>
      <point x="-630" y="858" type="line"/>
      <point x="574" y="484" type="line"/>
    </contour>
    <contour>
      <point x="574" y="164" type="line"/>
      <point x="-630" y="558" type="line"/>
      <point x="-630" y="338" type="line"/>
      <point x="574" y="-56" type="line"/>
    </contour>
  </outline>
</glyph>
<glyph name="less_equal_equal.liga" format="1">
  <advance width="1200"/>
  <outline>
    <contour>
      <point x="-1206" y="332" type="line"/>
      <point x="-1406" y="362" type="line"/>
      <point x="-1406" y="444" type="line"/>
      <point x="-1866" y="700" type="line"/>
      <point x="-1866" y="718" type="line"/>
      <point x="-1410" y="982" type="line"/>
      <point x="-1410" y="1052" type="line"/>
      <point x="-1206" y="1084" type="line"/>
      <point x="-1206" y="1324" type="line"/>
      <point x="-2160" y="770" type="line"/>
      <point x="-2160" y="648" type="line"/>
      <point x="-1206" y="92" type="line"/>
    </contour>
    <contour>
      <point x="920" y="386" type="line"/>
      <point x="920" y="572" type="line"/>
      <point x="-1880" y="572" type="line"/>
      <point x="-1620" y="386" type="line"/>
    </contour>
    <contour>
      <point x="920" y="846" type="line"/>
      <point x="920" y="1032" type="line"/>
      <point x="-1480" y="1032" type="line"/>
      <point x="-1740" y="846" type="line"/>
    </contour>
  </outline>
</glyph>
<glyph name="less_equal_equal_greater.liga" format="1">
  <advance width="1200"/>
  <outline>
    <contour>
      <point x="960" y="648" type="line"/>
      <point x="960" y="770" type="line"/>
      <point x="6" y="1304" type="line"/>
      <point x="6" y="1084" type="line"/>
      <point x="210" y="1052" type="line"/>
      <point x="210" y="982" type="line"/>
      <point x="666" y="718" type="line"/>
      <point x="666" y="700" type="line"/>
      <point x="206" y="444" type="line"/>
      <point x="206" y="362" type="line"/>
      <point x="6" y="332" type="line"/>
      <point x="6" y="112" type="line"/>
    </contour>
    <contour>
      <point x="-2406" y="332" type="line"/>
      <point x="-2606" y="362" type="line"/>
      <point x="-2606" y="444" type="line"/>
      <point x="-3066" y="700" type="line"/>
      <point x="-3066" y="718" type="line"/>
      <point x="-2610" y="982" type="line"/>
      <point x="-2610" y="1052" type="line"/>
      <point x="-2406" y="1084" type="line"/>
      <point x="-2406" y="1304" type="line"/>
      <point x="-3360" y="770" type="line"/>
      <point x="-3360" y="648" type="line"/>
      <point x="-2406" y="112" type="line"/>
    </contour>
    <contour>
      <point x="420" y="386" type="line"/>
      <point x="680" y="552" type="line"/>
      <point x="-3080" y="552" type="line"/>
      <point x="-2820" y="386" type="line"/>
    </contour>
    <contour>
      <point x="540" y="866" type="line"/>
      <point x="280" y="1032" type="line"/>
      <point x="-2680" y="1032" type="line"/>
      <point x="-2940" y="866" type="line"/>
    </contour>
  </outline>
</glyph>
<glyph name="less_equal_less.liga" format="1">
  <advance width="1200"/>
  <outline>
    <contour>
      <point x="-1206" y="332" type="line"/>
      <point x="-1406" y="362" type="line"/>
      <point x="-1406" y="444" type="line"/>
      <point x="-1866" y="700" type="line"/>
      <point x="-1866" y="718" type="line"/>
      <point x="-1410" y="982" type="line"/>
      <point x="-1410" y="1052" type="line"/>
      <point x="-1206" y="1084" type="line"/>
      <point x="-1206" y="1324" type="line"/>
      <point x="-2160" y="770" type="line"/>
      <point x="-2160" y="648" type="line"/>
      <point x="-1206" y="92" type="line"/>
    </contour>
    <contour>
      <point x="528" y="386" type="line"/>
      <point x="528" y="592" type="line"/>
      <point x="-1880" y="592" type="line"/>
      <point x="-1620" y="386" type="line"/>
    </contour>
    <contour>
      <point x="528" y="826" type="line"/>
      <point x="528" y="1032" type="line"/>
      <point x="-1480" y="1032" type="line"/>
      <point x="-1740" y="826" type="line"/>
    </contour>
    <contour>
      <point x="920" y="332" type="line"/>
      <point x="528" y="592" type="line"/>
      <point x="396" y="428" type="line"/>
      <point x="920" y="112" type="line"/>
    </contour>
    <contour>
      <point x="920" y="1084" type="line"/>
      <point x="920" y="1304" type="line"/>
      <point x="396" y="988" type="line"/>
      <point x="528" y="826" type="line"/>
    </contour>
  </outline>
</glyph>
<glyph name="less_exclam_hyphen_hyphen.liga" format="1">
  <advance width="1200"/>
  <outline>
    <contour>
      <point x="-2406" y="352" type="line"/>
      <point x="-2850" y="526"/>
      <point x="-2938" y="566"/>
      <point x="-2988" y="570" type="curve"/>
      <point x="-2988" y="846" type="line"/>
      <point x="-2934" y="850"/>
      <point x="-2838" y="876"/>
      <point x="-2406" y="1064" type="curve"/>
      <point x="-2406" y="1304" type="line"/>
      <point x="-3360" y="770" type="line"/>
      <point x="-3360" y="648" type="line"/>
      <point x="-2406" y="112" type="line"/>
    </contour>
    <contour>
      <point x="-2002" y="614" type="line"/>
      <point x="-2002" y="802" type="line"/>
      <point x="-3042" y="802" type="line"/>
      <point x="-3042" y="614" type="line"/>
    </contour>
    <contour>
      <point x="920" y="614" type="line"/>
      <point x="920" y="802" type="line"/>
      <point x="-1282" y="802" type="line"/>
      <point x="-1282" y="614" type="line"/>
    </contour>
    <component base="period" xOffset="-2240"/>
  </outline>
</glyph>
<glyph name="less_hyphen_hyphen.liga" format="1">
  <advance width="1200"/>
  <outline>
    <contour>
      <point x="-1206" y="352" type="line"/>
      <point x="-1650" y="526"/>
      <point x="-1738" y="566"/>
      <point x="-1788" y="570" type="curve"/>
      <point x="-1788" y="846" type="line"/>
      <point x="-1734" y="850"/>
      <point x="-1638" y="876"/>
      <point x="-1206" y="1064" type="curve"/>
      <point x="-1206" y="1304" type="line"/>
      <point x="-2160" y="770" type="line"/>
      <point x="-2160" y="648" type="line"/>
      <point x="-1206" y="112" type="line"/>
    </contour>
    <contour>
      <point x="920" y="614" type="line"/>
      <point x="920" y="802" type="line"/>
      <point x="-1842" y="802" type="line"/>
      <point x="-1842" y="614" type="line"/>
    </contour>
  </outline>
</glyph>
<glyph name="less_less_hyphen.liga" format="1">
  <advance width="1200"/>
  <outline>
    <contour>
      <point x="-324" y="352" type="line"/>
      <point x="-768" y="526"/>
      <point x="-856" y="566"/>
      <point x="-906" y="570" type="curve"/>
      <point x="-906" y="846" type="line"/>
      <point x="-852" y="850"/>
      <point x="-756" y="876"/>
      <point x="-324" y="1064" type="curve"/>
      <point x="-324" y="1304" type="line"/>
      <point x="-1278" y="770" type="line"/>
      <point x="-1278" y="648" type="line"/>
      <point x="-324" y="112" type="line"/>
    </contour>
    <contour>
      <point x="-1206" y="352" type="line"/>
      <point x="-1866" y="700" type="line"/>
      <point x="-1866" y="718" type="line"/>
      <point x="-1206" y="1064" type="line"/>
      <point x="-1206" y="1304" type="line"/>
      <point x="-2160" y="770" type="line"/>
      <point x="-2160" y="648" type="line"/>
      <point x="-1206" y="112" type="line"/>
    </contour>
    <contour>
      <point x="920" y="614" type="line"/>
      <point x="920" y="802" type="line"/>
      <point x="-960" y="802" type="line"/>
      <point x="-960" y="614" type="line"/>
    </contour>
  </outline>
</glyph>
<glyph name="macroncomb.case" format="1">
  <advance width="1200"/>
    <anchor name="_top" x="600" y="1420"/>
  <outline>
    <contour>
      <point x="987" y="1580" type="line"/>
      <point x="987" y="1768" type="line"/>
      <point x="213" y="1768" type="line"/>
      <point x="213" y="1580" type="line"/>
    </contour>
    <contour>
      <point x="600" y="1420" type="move" name="_top"/>
    </contour>
  </outline>
</glyph>
<glyph name="numbersign_exclam.liga" format="1">
  <advance width="1200"/>
  <outline>
    <contour>
      <point x="716" y="456" type="line"/>
      <point x="726" y="1430" type="line"/>
      <point x="518" y="1430" type="line"/>
      <point x="524" y="456" type="line"/>
    </contour>
    <component base="numbersign" xOffset="-1040"/>
    <component base="period" xOffset="22"/>
  </outline>
</glyph>
<glyph name="numbersign_numbersign_numbersign.liga" format="1">
  <advance width="1200"/>
  <outline>
    <contour>
      <point x="88" y="890" type="line"/>
      <point x="88" y="1060" type="line"/>
      <point x="-1242" y="1060" type="line"/>
      <point x="-1242" y="890" type="line"/>
    </contour>
    <contour>
      <point x="88" y="360" type="line"/>
      <point x="88" y="530" type="line"/>
      <point x="-1242" y="530" type="line"/>
      <point x="-1242" y="360" type="line"/>
    </contour>
    <component base="numbersign" xOffset="-2240"/>
    <component base="numbersign" xOffset="-1220"/>
    <component base="numbersign" xOffset="-200"/>
  </outline>
</glyph>
<glyph name="numbersign_parenleft.liga" format="1">
  <advance width="1200"/>
  <outline>
    <contour>
      <point x="-174" y="0" type="line"/>
      <point x="-54" y="1420" type="line"/>
      <point x="-230" y="1420" type="line"/>
      <point x="-350" y="0" type="line"/>
    </contour>
    <contour>
      <point x="-610" y="0" type="line"/>
      <point x="-490" y="1420" type="line"/>
      <point x="-666" y="1420" type="line"/>
      <point x="-786" y="0" type="line"/>
    </contour>
    <contour>
      <point x="420" y="360" type="line"/>
      <point x="420" y="530" type="line"/>
      <point x="-920" y="530" type="line"/>
      <point x="-920" y="360" type="line"/>
    </contour>
    <contour>
      <point x="420" y="890" type="line"/>
      <point x="420" y="1060" type="line"/>
      <point x="-920" y="1060" type="line"/>
      <point x="-920" y="890" type="line"/>
    </contour>
    <component base="parenleft" xOffset="-20"/>
  </outline>
</glyph>
<glyph name="numbersign_underscore.liga" format="1">
  <advance width="1200"/>
  <outline>
    <contour>
      <point x="-188" y="-176" type="line"/>
      <point x="-54" y="1420" type="line"/>
      <point x="-230" y="1420" type="line"/>
      <point x="-364" y="-176" type="line"/>
    </contour>
    <contour>
      <point x="80" y="360" type="line"/>
      <point x="80" y="530" type="line"/>
      <point x="-920" y="530" type="line"/>
      <point x="-920" y="360" type="line"/>
    </contour>
    <contour>
      <point x="-610" y="0" type="line"/>
      <point x="-490" y="1420" type="line"/>
      <point x="-666" y="1420" type="line"/>
      <point x="-786" y="0" type="line"/>
    </contour>
    <contour>
      <point x="960" y="-176" type="line"/>
      <point x="960" y="0" type="line"/>
      <point x="-298" y="0" type="line"/>
      <point x="-300" y="-176" type="line"/>
    </contour>
    <contour>
      <point x="80" y="890" type="line"/>
      <point x="80" y="1060" type="line"/>
      <point x="-920" y="1060" type="line"/>
      <point x="-920" y="890" type="line"/>
    </contour>
  </outline>
</glyph>
<glyph name="period_hyphen.liga" format="1">
  <advance width="1200"/>
  <outline>
    <contour>
      <point x="920" y="614" type="line"/>
      <point x="920" y="800" type="line"/>
      <point x="-180" y="800" type="line"/>
      <point x="-180" y="614" type="line"/>
    </contour>
    <component base="period" xOffset="-1260" yOffset="580"/>
  </outline>
</glyph>
<glyph name="period_period_equal.liga" format="1">
  <advance width="1200"/>
  <outline>
    <contour>
      <point x="920" y="866" type="line"/>
      <point x="920" y="1052" type="line"/>
      <point x="-500" y="1052" type="line"/>
      <point x="-500" y="866" type="line"/>
    </contour>
    <contour>
      <point x="920" y="366" type="line"/>
      <point x="920" y="552" type="line"/>
      <point x="-500" y="552" type="line"/>
      <point x="-500" y="366" type="line"/>
    </contour>
    <component base="period" xOffset="-2520" yOffset="580"/>
    <component base="period" xOffset="-1750" yOffset="580"/>
  </outline>
</glyph>
<glyph name="period_period_less.liga" format="1">
  <advance width="1200"/>
  <outline>
    <contour>
      <point x="920" y="434" type="line"/>
      <point x="60" y="700" type="line"/>
      <point x="60" y="718" type="line"/>
      <point x="920" y="984" type="line"/>
      <point x="920" y="1204" type="line"/>
      <point x="-218" y="810" type="line"/>
      <point x="-218" y="608" type="line"/>
      <point x="920" y="214" type="line"/>
    </contour>
    <component base="period" xOffset="-2460" yOffset="562"/>
    <component base="period" xOffset="-1462" yOffset="562"/>
  </outline>
</glyph>
<glyph name="period_question.liga" format="1">
  <advance width="1200"/>
  <outline>
    <contour>
      <point x="456" y="456" type="line"/>
      <point x="456" y="538" type="line" smooth="yes"/>
      <point x="456" y="616"/>
      <point x="498" y="682"/>
      <point x="584" y="738" type="curve" smooth="yes"/>
      <point x="732" y="833"/>
      <point x="806" y="954"/>
      <point x="806" y="1102" type="curve" smooth="yes"/>
      <point x="806" y="1316"/>
      <point x="654" y="1440"/>
      <point x="391" y="1440" type="curve" smooth="yes"/>
      <point x="116" y="1440"/>
      <point x="-42" y="1302"/>
      <point x="-42" y="1062" type="curve"/>
      <point x="160" y="1062" type="line"/>
      <point x="160" y="1182"/>
      <point x="244" y="1250"/>
      <point x="389" y="1250" type="curve" smooth="yes"/>
      <point x="514" y="1250"/>
      <point x="586" y="1192"/>
      <point x="586" y="1092" type="curve" smooth="yes"/>
      <point x="586" y="1000"/>
      <point x="532" y="921"/>
      <point x="424" y="854" type="curve"/>
      <point x="314" y="784"/>
      <point x="260" y="684"/>
      <point x="260" y="552" type="curve" smooth="yes"/>
      <point x="260" y="456" type="line"/>
    </contour>
    <component base="period" xOffset="-1100"/>
    <component base="period" xOffset="-238"/>
  </outline>
</glyph>
<glyph name="plus_plus_plus.liga" format="1">
  <advance width="1200"/>
  <outline>
    <contour>
      <point x="346" y="617" type="line"/>
      <point x="346" y="803" type="line"/>
      <point x="-539" y="803" type="line"/>
      <point x="-539" y="617" type="line"/>
    </contour>
    <contour>
      <point x="-654" y="617" type="line"/>
      <point x="-654" y="803" type="line"/>
      <point x="-1539" y="803" type="line"/>
      <point x="-1539" y="617" type="line"/>
    </contour>
    <component base="plus" xOffset="-2220"/>
    <component base="plus" xOffset="-180"/>
    <component base="plus" xOffset="-1200"/>
  </outline>
</glyph>
<glyph name="question_equal.liga" format="1">
  <advance width="1200"/>
  <outline>
    <contour>
      <point x="920" y="406" type="line"/>
      <point x="920" y="592" type="line"/>
      <point x="-98" y="592" type="line"/>
      <point x="-98" y="406" type="line"/>
    </contour>
    <contour>
      <point x="920" y="886" type="line"/>
      <point x="920" y="1072" type="line"/>
      <point x="20" y="1072" type="line"/>
      <point x="10" y="1014"/>
      <point x="-14" y="940"/>
      <point x="-44" y="886" type="curve"/>
    </contour>
    <component base="period" xOffset="-1156"/>
  </outline>
</glyph>
<glyph name="question_period.liga" format="1">
  <advance width="1200"/>
  <outline>
    <contour>
      <point x="-264" y="456" type="line"/>
      <point x="-264" y="538" type="line" smooth="yes"/>
      <point x="-264" y="616"/>
      <point x="-222" y="682"/>
      <point x="-136" y="738" type="curve" smooth="yes"/>
      <point x="12" y="833"/>
      <point x="86" y="954"/>
      <point x="86" y="1102" type="curve" smooth="yes"/>
      <point x="86" y="1316"/>
      <point x="-66" y="1440"/>
      <point x="-329" y="1440" type="curve" smooth="yes"/>
      <point x="-604" y="1440"/>
      <point x="-762" y="1302"/>
      <point x="-762" y="1062" type="curve"/>
      <point x="-560" y="1062" type="line"/>
      <point x="-560" y="1182"/>
      <point x="-476" y="1250"/>
      <point x="-331" y="1250" type="curve" smooth="yes"/>
      <point x="-206" y="1250"/>
      <point x="-134" y="1192"/>
      <point x="-134" y="1092" type="curve" smooth="yes"/>
      <point x="-134" y="1000"/>
      <point x="-188" y="921"/>
      <point x="-296" y="854" type="curve"/>
      <point x="-406" y="784"/>
      <point x="-460" y="684"/>
      <point x="-460" y="552" type="curve" smooth="yes"/>
      <point x="-460" y="456" type="line"/>
    </contour>
    <component base="period" xOffset="-958"/>
    <component base="period" xOffset="-100"/>
  </outline>
</glyph>
<glyph name="question_question.liga" format="1">
  <advance width="1200"/>
  <outline>
    <contour>
      <point x="-418" y="456" type="line"/>
      <point x="-418" y="538" type="line" smooth="yes"/>
      <point x="-418" y="616"/>
      <point x="-376" y="682"/>
      <point x="-290" y="738" type="curve" smooth="yes"/>
      <point x="-142" y="836"/>
      <point x="-68" y="960"/>
      <point x="-68" y="1112" type="curve" smooth="yes"/>
      <point x="-68" y="1320"/>
      <point x="-222" y="1440"/>
      <point x="-488" y="1440" type="curve" smooth="yes"/>
      <point x="-760" y="1440"/>
      <point x="-916" y="1302"/>
      <point x="-916" y="1062" type="curve"/>
      <point x="-714" y="1062" type="line"/>
      <point x="-714" y="1182"/>
      <point x="-632" y="1250"/>
      <point x="-490" y="1250" type="curve" smooth="yes"/>
      <point x="-362" y="1250"/>
      <point x="-288" y="1196"/>
      <point x="-288" y="1102" type="curve" smooth="yes"/>
      <point x="-288" y="1006"/>
      <point x="-342" y="924"/>
      <point x="-450" y="854" type="curve" smooth="yes"/>
      <point x="-560" y="784"/>
      <point x="-614" y="684"/>
      <point x="-614" y="552" type="curve" smooth="yes"/>
      <point x="-614" y="456" type="line"/>
    </contour>
    <component base="period" xOffset="-1112"/>
    <component base="period" xOffset="-168"/>
  </outline>
</glyph>
<glyph name="r.salt" format="1">
  <advance width="1200"/>
  <outline>
    <contour>
      <point x="380" y="0" type="line"/>
      <point x="380" y="868" type="line"/>
      <point x="360" y="1060" type="line"/>
      <point x="168" y="1060" type="line"/>
      <point x="168" y="0" type="line"/>
    </contour>
    <contour>
      <point x="685" y="900" type="curve" smooth="yes"/>
      <point x="832" y="900"/>
      <point x="942" y="836"/>
      <point x="942" y="682" type="curve"/>
      <point x="1152" y="682" type="line"/>
      <point x="1152" y="962"/>
      <point x="988" y="1080"/>
      <point x="762" y="1080" type="curve" smooth="yes"/>
      <point x="590" y="1080"/>
      <point x="442" y="1020"/>
      <point x="404" y="888" type="curve"/>
      <point x="342" y="888" type="line"/>
      <point x="380" y="456" type="line"/>
      <point x="380" y="740"/>
      <point x="530" y="900"/>
    </contour>
  </outline>
</glyph>
<glyph name="ringcomb.case" format="1">
  <advance width="1200"/>
    <anchor name="_top" x="600" y="1420"/>
    <anchor name="top" x="600" y="1900"/>
  <outline>
    <contour>
      <point x="600" y="1488" type="curve" smooth="yes"/>
      <point x="751" y="1488"/>
      <point x="838" y="1563"/>
      <point x="838" y="1694" type="curve" smooth="yes"/>
      <point x="838" y="1825"/>
      <point x="751" y="1900"/>
      <point x="600" y="1900" type="curve" smooth="yes"/>
      <point x="449" y="1900"/>
      <point x="362" y="1825"/>
      <point x="362" y="1694" type="curve" smooth="yes"/>
      <point x="362" y="1563"/>
      <point x="449" y="1488"/>
    </contour>
    <contour>
      <point x="600" y="1604" type="curve" smooth="yes"/>
      <point x="538" y="1604"/>
      <point x="504" y="1636"/>
      <point x="504" y="1694" type="curve" smooth="yes"/>
      <point x="504" y="1752"/>
      <point x="538" y="1785"/>
      <point x="600" y="1785" type="curve" smooth="yes"/>
      <point x="662" y="1785"/>
      <point x="696" y="1752"/>
      <point x="696" y="1694" type="curve" smooth="yes"/>
      <point x="696" y="1636"/>
      <point x="662" y="1604"/>
    </contour>
    <contour>
      <point x="600" y="1420" type="move" name="_top"/>
    </contour>
    <contour>
      <point x="600" y="1900" type="move" name="top"/>
    </contour>
  </outline>
</glyph>
<glyph name="semicolon_semicolon.liga" format="1">
  <advance width="1200"/>
  <outline>
    <contour>
      <point x="-434" y="784" type="curve" smooth="yes"/>
      <point x="-352" y="784"/>
      <point x="-286" y="850"/>
      <point x="-286" y="932" type="curve" smooth="yes"/>
      <point x="-286" y="1014"/>
      <point x="-352" y="1080"/>
      <point x="-434" y="1080" type="curve" smooth="yes"/>
      <point x="-516" y="1080"/>
      <point x="-582" y="1014"/>
      <point x="-582" y="932" type="curve" smooth="yes"/>
      <point x="-582" y="850"/>
      <point x="-516" y="784"/>
    </contour>
    <component base="comma" xOffset="-1034"/>
    <component base="comma" xOffset="-116"/>
  </outline>
</glyph>
<glyph name="slash_equal.liga" format="1">
  <advance width="1200"/>
  <outline>
    <contour>
      <point x="922" y="366" type="line"/>
      <point x="922" y="552" type="line"/>
      <point x="-218" y="552" type="line"/>
      <point x="-308" y="366" type="line"/>
    </contour>
    <contour>
      <point x="922" y="866" type="line"/>
      <point x="922" y="1052" type="line"/>
      <point x="12" y="1052" type="line"/>
      <point x="-78" y="866" type="line"/>
    </contour>
    <component base="slash" xOffset="-1080"/>
  </outline>
</glyph>
<glyph name="underscore_bar_underscore.liga" format="1">
  <advance width="1200"/>
  <outline>
    <contour>
      <point x="920" y="-176" type="line"/>
      <point x="920" y="0" type="line"/>
      <point x="-2120" y="0" type="line"/>
      <point x="-2120" y="-176" type="line"/>
    </contour>
    <contour>
      <point x="-500" y="-120" type="line"/>
      <point x="-500" y="1760" type="line"/>
      <point x="-700" y="1760" type="line"/>
      <point x="-700" y="-120" type="line"/>
    </contour>
  </outline>
</glyph>
